<svg xmlns="http://www.w3.org/2000/svg" width="24" height="24" viewBox="0 0 24 24" fill="none">
  <path d="M20.25,7.5L19.625,18.1318359375C19.5550537109375,19.32177734375,18.5697021484375,20.25048828125,17.37799072265625,20.25L6.62200927734375,20.25C5.4302978515625,20.25048828125,4.44488525390625,19.32177734375,4.375,18.1318359375L3.75,7.5M10,11.25L14,11.25M3.375,7.5L20.625,7.5C21.2459716796875,7.5,21.75,6.99609375,21.75,6.375L21.75,4.875C21.75,4.25390625,21.2459716796875,3.75,20.625,3.75L3.375,3.75C2.75396728515625,3.75,2.25,4.25390625,2.25,4.875L2.25,6.375C2.25,6.99609375,2.75396728515625,7.5,3.375,7.5Z" stroke="currentColor" stroke-width="1.5" stroke-linejoin="round" stroke-linecap="round"/>
</svg>
