<svg xmlns="http://www.w3.org/2000/svg" width="24" height="24" viewBox="0 0 24 24" fill="none">
  <path d="M5.988037109375,10.22998046875C5.8807373046875,12.28662109375,5.0684814453125,14.24365234375,3.68798828125,15.77197265625C5.448486328125,16.421875,7.2794189453125,16.861328125,9.1429443359375,17.08203125C10.4183349609375,17.23291015625,10.716796875,17.052734375,12,17L14,19C14,20,12.55517578125,21.40966796875,11.0020751953125,20.8701171875C9.4490966796875,20.330078125,8.6199951171875,18.640625,9.1429443359375,17.08203125M16.7750244140625,16.77490234375L6.530029296875,6.52978515625C7.6923828125,3.951171875,10.4979248046875,2.53466796875,13.2630615234375,3.1298828125C16.0283203125,3.7255859375,18.0020751953125,6.17138671875,18,9L18,9.75C17.9967041015625,11.974609375,18.8203125,14.12060546875,20.31103515625,15.77197265625C19.159912109375,16.19677734375,17.977783203125,16.5322265625,16.7750244140625,16.77490234375L21,21M3,3L6.530029296875,6.52978515625" stroke="currentColor" stroke-width="1.5" stroke-linejoin="round" stroke-linecap="round"/>
</svg>
