<svg xmlns="http://www.w3.org/2000/svg" width="24" height="24" viewBox="0 0 24 24" fill="none">
  <path d="M14.85693359375,17.082048416137695C16.72021484375,16.861345291137695,18.5509033203125,16.421892166137695,20.31103515625,15.771990776062012C18.8203125,14.120623588562012,17.9967041015625,11.974627494812012,18,9.750018119812012L18,9.049822807312012L18,9.000018119812012C18,5.686541557312012,15.313720703125,3.0000181198120117,12,3.0000181198120117C8.686279296875,3.0000181198120117,6,5.686541557312012,6,9.000018119812012L6,9.750018119812012C6.0030517578125,11.974627494812012,5.178955078125,14.121111869812012,3.68798828125,15.771990776062012C5.4210205078125,16.412126541137695,7.2479248046875,16.856950759887695,9.1429443359375,17.082048416137695M14.85693359375,17.082048416137695C12.958984375,17.307146072387695,11.041015625,17.307146072387695,9.1429443359375,17.082048416137695M14.85693359375,17.082048416137695C15.2525634765625,18.316911697387695,14.81005859375,19.666032791137695,13.760009765625,20.426774978637695C12.7099609375,21.187517166137695,11.2900390625,21.187517166137695,10.239990234375,20.426774978637695C9.18994140625,19.666032791137695,8.7474365234375,18.316911697387695,9.1429443359375,17.082048416137695" stroke="currentColor" stroke-width="1.5"/>
</svg>
