<svg xmlns="http://www.w3.org/2000/svg" width="24" height="24" viewBox="0 0 24 24" fill="none">
  <path d="M6.75,3L6.75,5.25M17.25,3L17.25,5.25M3,18.75L3,7.5C3,6.25732421875,4.00732421875,5.25,5.25,5.25L18.75,5.25C19.99261474609375,5.25,21,6.25732421875,21,7.5L21,18.75M3,18.75C3,19.99267578125,4.00732421875,21,5.25,21L18.75,21C19.99261474609375,21,21,19.99267578125,21,18.75M3,18.75L3,11.25C3,10.00732421875,4.00732421875,9,5.25,9L18.75,9C19.99261474609375,9,21,10.00732421875,21,11.25L21,18.75" stroke="currentColor" stroke-width="1.5" stroke-linecap="round"/>
</svg>
