<svg xmlns="http://www.w3.org/2000/svg" width="24" height="24" viewBox="0 0 24 24" fill="none">
  <path d="M15.75,10.5L20.469970703125,5.780029296875C20.6844482421875,5.565673828125,21.0068359375,5.501708984375,21.286865234375,5.61767578125C21.5670166015625,5.733642578125,21.749755859375,6.0068359375,21.75,6.31005859375L21.75,17.68994140625C21.749755859375,17.9931640625,21.5670166015625,18.266357421875,21.286865234375,18.38232421875C21.0068359375,18.498291015625,20.6844482421875,18.434326171875,20.469970703125,18.219970703125L15.75,13.5M12,18.75L4.5,18.75C3.25732421875,18.75,2.25,17.74267578125,2.25,16.5L2.25,9M15.0909423828125,18.091064453125L16.5,19.5M15.0909423828125,18.091064453125C15.4979248046875,17.68408203125,15.75,17.12109375,15.75,16.5L15.75,7.5C15.75,6.25732421875,14.7425537109375,5.25,13.5,5.25L4.5,5.25C3.8790283203125,5.25,3.31591796875,5.501953125,2.908935546875,5.908935546875M15.0909423828125,18.091064453125L2.908935546875,5.908935546875M1.5,4.5L2.908935546875,5.908935546875" stroke="currentColor" stroke-width="1.5"/>
</svg>
