<svg xmlns="http://www.w3.org/2000/svg" width="24" height="24" viewBox="0 0 24 24" fill="none">
  <path d="M15.75,10.499994277954102L20.469970703125,5.780023574829102C20.6844482421875,5.565790176391602,21.0068359375,5.501703262329102,21.286865234375,5.617670059204102C21.5670166015625,5.733636856079102,21.749755859375,6.006830215454102,21.75,6.310052871704102L21.75,17.6899356842041C21.749755859375,17.9931583404541,21.5670166015625,18.2663516998291,21.286865234375,18.3823184967041C21.0068359375,18.4982852935791,20.6844482421875,18.4341983795166,20.469970703125,18.2199649810791L15.75,13.499994277954102M4.5,18.7499942779541L13.5,18.7499942779541C14.74267578125,18.7499942779541,15.75,17.7426700592041,15.75,16.4999942779541L15.75,7.499994277954102C15.75,6.257318496704102,14.74267578125,5.249994277954102,13.5,5.249994277954102L4.5,5.249994277954102C3.25732421875,5.249994277954102,2.25,6.257318496704102,2.25,7.499994277954102L2.25,16.4999942779541C2.25,17.7426700592041,3.25732421875,18.7499942779541,4.5,18.7499942779541Z" stroke="currentColor" stroke-width="1.5"/>
</svg>
