<svg xmlns="http://www.w3.org/2000/svg" width="24" height="24" viewBox="0 0 24 24" fill="none">
  <path d="M12,20.249998092651367C16.969970703125,20.249998092651367,21,16.556028366088867,21,11.999999046325684C21,7.443968296051025,16.969970703125,3.7499985694885254,12,3.7499985694885254C7.030029296875,3.7499985694885254,3,7.443968296051025,3,11.999999046325684C3,14.104002952575684,3.8590087890625,16.022947311401367,5.27294921875,17.479978561401367C5.5087890625,17.723997116088867,5.9996337890625,18.157163619995117,6.40087890625,18.495298385620117C7,18.999998092651367,7,19.999998092651367,7,19.999998092651367C7,20.999998092651367,7,19.999998092651367,7,20.999998092651367C7.35107421875,21.063108444213867,7.748046875,21.252622604370117,8,20.999998092651367C9,19.999998092651367,11.113037109375,20.249998092651367,12,20.249998092651367L12,20.249998092651367" stroke="currentColor" stroke-width="1.5"/>
</svg>
