<svg xmlns="http://www.w3.org/2000/svg" width="24" height="24" viewBox="0 0 24 24" fill="none">
  <path d="M6.75006103515625,11.999998092651367C6.75006103515625,12.414182662963867,6.41424560546875,12.749998092651367,6.00006103515625,12.749998092651367C5.58575439453125,12.749998092651367,5.25006103515625,12.414182662963867,5.25006103515625,11.999998092651367C5.25006103515625,11.585813522338867,5.58575439453125,11.249998092651367,6.00006103515625,11.249998092651367C6.41424560546875,11.249998092651367,6.75006103515625,11.585813522338867,6.75006103515625,11.999998092651367ZM12.75006103515625,11.999998092651367C12.75006103515625,12.414182662963867,12.41424560546875,12.749998092651367,12.00006103515625,12.749998092651367C11.58575439453125,12.749998092651367,11.25006103515625,12.414182662963867,11.25006103515625,11.999998092651367C11.25006103515625,11.585813522338867,11.58575439453125,11.249998092651367,12.00006103515625,11.249998092651367C12.41424560546875,11.249998092651367,12.75006103515625,11.585813522338867,12.75006103515625,11.999998092651367ZM18.75,11.999998092651367C18.75,12.414182662963867,18.4141845703125,12.749998092651367,18,12.749998092651367C17.585693359375,12.749998092651367,17.25,12.414182662963867,17.25,11.999998092651367C17.25,11.585813522338867,17.585693359375,11.249998092651367,18,11.249998092651367C18.4141845703125,11.249998092651367,18.75,11.585813522338867,18.75,11.999998092651367Z" stroke="currentColor" stroke-width="1.5"/>
</svg>
