<svg xmlns="http://www.w3.org/2000/svg" width="24" height="24" viewBox="0 0 24 24" fill="none">
  <path d="M3.97998046875,8.222900390625C3.04443359375,9.3271484375,2.3477783203125,10.61328125,1.9339599609375,12C3.22607421875,16.337890625,7.243896484375,19.5,12,19.5C12.992919921875,19.5,13.9530029296875,19.362060546875,14.863037109375,19.10498046875M6.22802734375,6.22802734375C7.940673828125,5.097900390625,9.947998046875,4.496826171875,12,4.5C16.7559814453125,4.5,20.77294921875,7.662109375,22.06494140625,11.998046875C21.35693359375,14.3671875,19.8369140625,16.41162109375,17.77197265625,17.77197265625M6.22802734375,6.22802734375L3,3M6.22802734375,6.22802734375L9.8779296875,9.8779296875M17.77197265625,17.77197265625L21,21M17.77197265625,17.77197265625L14.1220703125,14.1220703125M14.1220703125,14.1220703125C14.8798828125,13.364013671875,15.176025390625,12.25927734375,14.8984375,11.223876953125C14.62109375,10.188720703125,13.8123779296875,9.3798828125,12.777099609375,9.1025390625C11.74169921875,8.824951171875,10.636962890625,9.12109375,9.87890625,9.87890625M14.1209716796875,14.12109375L9.8800048828125,9.8798828125" stroke="currentColor" stroke-width="1.5"/>
</svg>
