<svg xmlns="http://www.w3.org/2000/svg" width="24" height="24" viewBox="0 0 24 24" fill="none">
  <path d="M2.0360107421875,12.322021484375C1.96697998046875,12.114501953125,1.96697998046875,11.890380859375,2.0360107421875,11.68310546875C3.4229736328125,7.510009765625,7.3599853515625,4.5,12,4.5C16.6380615234375,4.5,20.572998046875,7.507080078125,21.9630126953125,11.677978515625C22.0330810546875,11.885009765625,22.0330810546875,12.10888671875,21.9630126953125,12.31689453125C20.5770263671875,16.489990234375,16.6400146484375,19.5,12,19.5C7.36199951171875,19.5,3.427001953125,16.492919921875,2.0369873046875,12.322021484375Z" stroke="currentColor" stroke-width="1.5"/>
  <path d="M15,12C15,13.65673828125,13.6568603515625,15,12,15C10.3431396484375,15,9,13.65673828125,9,12C9,10.34326171875,10.3431396484375,9,12,9C13.6568603515625,9,15,10.34326171875,15,12Z" stroke="currentColor" stroke-width="1.5"/>
</svg>
