<svg xmlns="http://www.w3.org/2000/svg" width="24" height="24" viewBox="0 0 24 24" fill="none">
  <path d="M10.5,9.5C10.5,8.67138671875,9.828369140625,8,9,8C8.1715087890625,8,7.5,8.67138671875,7.5,9.5C7.5,10.32861328125,8.1715087890625,11,9,11C9.828369140625,11,10.5,10.32861328125,10.5,9.5L20.25,9.5M3.75,9.5L7.5,9.5M16.5,15.5C16.5,14.67138671875,15.828369140625,14,15,14C14.1715087890625,14,13.5,14.67138671875,13.5,15.5C13.5,16.32861328125,14.1715087890625,17,15,17C15.828369140625,17,16.5,16.32861328125,16.5,15.5L20.25,15.5M3.75,15.5L13.5,15.5" stroke="currentColor" stroke-width="1.5" stroke-linecap="round"/>
</svg>
