<svg xmlns="http://www.w3.org/2000/svg" width="24" height="24" viewBox="0 0 24 24" fill="none">
  <path d="M3.75,9.77587890625C3.86199951171875,9.759033203125,3.97698974609375,9.75,4.093994140625,9.75L19.906005859375,9.75C20.02301025390625,9.75,20.13800048828125,9.759033203125,20.25,9.77587890625M3.75,9.77587890625C2.53204345703125,9.964599609375,1.6925048828125,11.097900390625,1.86700439453125,12.318115234375L2.7239990234375,18.318115234375C2.88226318359375,19.426513671875,3.83135986328125,20.249755859375,4.95098876953125,20.25L19.04998779296875,20.25C20.16961669921875,20.249755859375,21.1187744140625,19.426513671875,21.2769775390625,18.318115234375L22.13397216796875,12.318115234375C22.3084716796875,11.097900390625,21.46893310546875,9.964599609375,20.2509765625,9.77587890625M3.7509765625,9.77587890625L3.7509765625,6C3.7509765625,4.7578125,4.75775146484375,3.75048828125,6,3.75L9.87896728515625,3.75C10.27667236328125,3.750244140625,10.657958984375,3.90869140625,10.93896484375,4.18994140625L13.06097412109375,6.31005859375C13.342041015625,6.59130859375,13.72332763671875,6.749755859375,14.1209716796875,6.75L18,6.75C19.24261474609375,6.75,20.25,7.75732421875,20.25,9L20.25,9.77587890625" stroke="currentColor" stroke-width="1.5"/>
</svg>
