<svg xmlns="http://www.w3.org/2000/svg" width="24" height="24" viewBox="0 0 24 24" fill="none">
  <path d="M13.05999755859375,6.31005859375L10.94000244140625,4.18994140625C10.65869140625,3.908447265625,10.27703857421875,3.75,9.87896728515625,3.75L4.5,3.75C3.90325927734375,3.75,3.3309326171875,3.987060546875,2.90899658203125,4.408935546875C2.487060546875,4.8310546875,2.25,5.4033203125,2.25,6L2.25,18C2.25,19.24267578125,3.25732421875,20.25,4.5,20.25L19.5,20.25C20.74261474609375,20.25,21.75,19.24267578125,21.75,18L21.75,9C21.75,7.75732421875,20.74261474609375,6.75,19.5,6.75L14.1209716796875,6.75C13.72332763671875,6.749755859375,13.342041015625,6.59130859375,13.06097412109375,6.31005859375L13.05999755859375,6.31005859375" stroke="currentColor" stroke-width="1.5"/>
</svg>
