<svg xmlns="http://www.w3.org/2000/svg" width="24" height="24" viewBox="0 0 24 24" fill="none">
  <path d="M9.78,5.89L10.40,2.94L13.60,2.94L14.22,5.89L16.18,7.02L19.05,6.08L20.65,8.85L18.40,10.87L18.40,13.13L20.65,15.15L19.05,17.92L16.18,16.98L14.22,18.11L13.60,21.06L10.40,21.06L9.78,18.11L7.82,16.98L4.95,17.92L3.35,15.15L5.60,13.13L5.60,10.87L3.35,8.85L4.95,6.08L7.82,7.02Z" stroke="currentColor" stroke-width="1.5" stroke-linejoin="round"/>
  <path d="M15.5,12A3.5,3.5,0,1,0,8.5,12A3.5,3.5,0,1,0,15.5,12Z" stroke="currentColor" stroke-width="1.5"/>
</svg>
