<svg xmlns="http://www.w3.org/2000/svg" width="24" height="24" viewBox="0 0 24 24" fill="none">
  <path d="M13.1900634765625,8.68798828125C14.5086669921875,9.317626953125,15.4395751953125,10.5482177734375,15.6864013671875,11.9884033203125C15.933349609375,13.4287109375,15.4656982421875,14.899169921875,14.4320068359375,15.9320068359375L9.9320068359375,20.4320068359375C8.1746826171875,22.1893310546875,5.325439453125,22.1893310546875,3.5679931640625,20.4320068359375C1.8106689453125,18.6746826171875,1.8106689453125,15.8253173828125,3.5679931640625,14.0679931640625L5.3250732421875,12.31103515625M18.675048828125,11.68896484375L20.4320068359375,9.9320068359375C22.189453125,8.1746826171875,22.189453125,5.3253173828125,20.4320068359375,3.5679931640625C18.6746826171875,1.8106689453125,15.825439453125,1.8106689453125,14.0679931640625,3.5679931640625L9.5679931640625,8.0679931640625C8.534423828125,9.100830078125,8.066650390625,10.5712890625,8.3135986328125,12.0115966796875C8.560546875,13.4517822265625,9.4913330078125,14.682373046875,10.81005859375,15.31201171875" stroke="currentColor" stroke-width="1.5" stroke-linecap="round"/>
</svg>
