<svg xmlns="http://www.w3.org/2000/svg" width="24" height="24" viewBox="0 0 24 24" fill="none">
  <path d="M12,18.75C15.313720703125,18.75,18,16.063720703125,18,12.75L18,11.25M12,18.75C8.686279296875,18.75,6,16.063720703125,6,12.75L6,11.25M12,18.75L12,22.5M8.25,22.5L15.75,22.5M12,15.75C10.3431396484375,15.75,9,14.4068603515625,9,12.75L9,4.5C9,2.8431396484375,10.3431396484375,1.5,12,1.5C13.6568603515625,1.5,15,2.8431396484375,15,4.5L15,12.75C15,14.4068603515625,13.6568603515625,15.75,12,15.75Z" stroke="currentColor" stroke-width="1.5" stroke-linecap="round"/>
</svg>
