<svg xmlns="http://www.w3.org/2000/svg" width="24" height="24" viewBox="0 0 24 24" fill="none">
  <path d="M9,8.999969482421875L19.5,5.999969482421875M19.5,12.552947998046875L19.5,16.302947998046875C19.49981689453125,17.307342529296875,18.8338623046875,18.190155029296875,17.8680419921875,18.466033935546875L16.54803466796875,18.842987060546875C15.92510986328125,19.031219482421875,15.24908447265625,18.869110107421875,14.77923583984375,18.418914794921875C14.309326171875,17.968963623046875,14.118408203125,17.300506591796875,14.27978515625,16.669891357421875C14.44110107421875,16.039520263671875,14.92962646484375,15.545135498046875,15.55804443359375,15.375946044921875L17.8680419921875,14.716033935546875C18.8338623046875,14.440155029296875,19.49981689453125,13.557342529296875,19.5,12.552947998046875ZM19.5,12.552947998046875L19.5,2.249969482421875L9,5.249969482421875L9,15.552947998046875M9,15.552947998046875L9,19.302947998046875C8.99981689453125,20.307342529296875,8.3338623046875,21.190155029296875,7.3680419921875,21.466033935546875L6.04803466796875,21.842987060546875C5.09686279296875,22.098846435546875,4.1163330078125,21.544158935546875,3.84588623046875,20.596893310546875C3.57537841796875,19.649871826171875,4.1151123046875,18.660858154296875,5.05804443359375,18.375946044921875L7.3680419921875,17.716033935546875C8.3338623046875,17.440155029296875,8.99981689453125,16.557342529296875,9,15.552947998046875Z" stroke="currentColor" stroke-width="1.5"/>
</svg>
