<svg xmlns="http://www.w3.org/2000/svg" width="24" height="24" viewBox="0 0 24 24" fill="none">
  <path d="M15,19.1280517578125C15.85302734375,19.3756103515625,16.73681640625,19.5008544921875,17.625,19.5C19.053466796875,19.5020751953125,20.4632568359375,19.1763916015625,21.7459716796875,18.5479736328125C21.823974609375,16.7064208984375,20.670654296875,15.03662109375,18.920654296875,14.45751953125C17.1707763671875,13.87841796875,15.2490234375,14.530517578125,14.2130126953125,16.0550537109375M15,19.1280517578125L15,19.125C15,18.011962890625,14.7149658203125,16.9649658203125,14.2139892578125,16.0550537109375M15,19.1280517578125L15,19.2340087890625C13.075439453125,20.39306640625,10.87060546875,21.0037841796875,8.6240234375,21C6.29296875,21,4.112060546875,20.35498046875,2.25,19.2340087890625L2.2490234375,19.125C2.2474365234375,16.213134765625,4.218994140625,13.6702880859375,7.03955078125,12.9466552734375C9.8599853515625,12.222900390625,12.8123779296875,13.502197265625,14.2130126953125,16.0550537109375M12,6.375C12,8.239013671875,10.489013671875,9.75,8.625,9.75C6.7611083984375,9.75,5.25,8.239013671875,5.25,6.375C5.25,4.510986328125,6.7611083984375,3,8.625,3C10.489013671875,3,12,4.510986328125,12,6.375ZM20.25,8.625C20.25,10.07470703125,19.07470703125,11.25,17.625,11.25C16.17529296875,11.25,15,10.07470703125,15,8.625C15,7.17529296875,16.17529296875,6,17.625,6C19.07470703125,6,20.25,7.17529296875,20.25,8.625Z" stroke="currentColor" stroke-width="1.5"/>
</svg>
