<svg xmlns="http://www.w3.org/2000/svg" width="24" height="24" viewBox="0 0 24 24" fill="none">
  <path d="M15.75,6.375C15.75,8.239013671875,14.239013671875,9.75,12.375,9.75C10.5111083984375,9.75,9,8.239013671875,9,6.375C9,4.510986328125,10.5111083984375,3,12.375,3C14.239013671875,3,15.75,4.510986328125,15.75,6.375L15.75,6.375M6,19.2349853515625L6,19C6,15.4791259765625,8.854248046875,12.75,12.375,12.75C15.8958740234375,12.75,18.75,15.6041259765625,18.75,19.125L18.75,19.2340087890625C16.8255615234375,20.39306640625,14.62060546875,21.0037841796875,12.3740234375,21C10.0430908203125,21,6,20,6,19.2340087890625L6,19.2349853515625" stroke="currentColor" stroke-width="1.5"/>
</svg>
