<svg xmlns="http://www.w3.org/2000/svg" width="24" height="24" viewBox="0 0 24 24" fill="none">
  <path d="M9.8790283203125,7.519032001495361C11.0499267578125,6.493885517120361,12.949951171875,6.493885517120361,14.1209716796875,7.519032001495361C15.29296875,8.543933868408203,15.29296875,10.206043243408203,14.1209716796875,11.230945587158203C13.91796875,11.409900665283203,13.6910400390625,11.556873321533203,13.450927734375,11.673084259033203C12.7059326171875,12.033924102783203,12.0009765625,12.672107696533203,12.0009765625,13.499988555908203L12.0009765625,14.249988555908203M21,11.999988555908203C21,16.970447540283203,16.9705810546875,20.999988555908203,12,20.999988555908203C7.0294189453125,20.999988555908203,3,16.970447540283203,3,11.999988555908203C3,7.029530048370361,7.0294189453125,2.9999887943267822,12,2.9999887943267822C16.9705810546875,2.9999887943267822,21,7.029530048370361,21,11.999988555908203ZM12,17.249988555908203L12.0079345703125,17.249988555908203L12.0079345703125,17.258045196533203L12,17.258045196533203L12,17.249988555908203Z" stroke="currentColor" stroke-width="1.5"/>
</svg>
