<svg xmlns="http://www.w3.org/2000/svg" width="24" height="24" viewBox="0 0 24 24" fill="none">
  <path d="M11.48004150390625,3.4990234375C11.5665283203125,3.2879638671875,11.77197265625,3.150146484375,12,3.150146484375C12.22808837890625,3.150146484375,12.43353271484375,3.2879638671875,12.52001953125,3.4990234375L14.64501953125,8.6099853515625C14.72613525390625,8.804931640625,14.90948486328125,8.938232421875,15.1199951171875,8.9549560546875L20.63800048828125,9.39697265625C21.13702392578125,9.43701171875,21.3389892578125,10.06005859375,20.95904541015625,10.385009765625L16.7550048828125,13.987060546875C16.59490966796875,14.1240234375,16.524658203125,14.3388671875,16.572998046875,14.5439453125L17.8580322265625,19.928955078125C17.91082763671875,20.14990234375,17.825439453125,20.3809814453125,17.64166259765625,20.514404296875C17.45782470703125,20.64794921875,17.21173095703125,20.6575927734375,17.01800537109375,20.5389404296875L12.29302978515625,17.654052734375C12.11309814453125,17.5443115234375,11.886962890625,17.5443115234375,11.70703125,17.654052734375L6.98199462890625,20.5400390625C6.78826904296875,20.6585693359375,6.54217529296875,20.64892578125,6.3583984375,20.515380859375C6.174560546875,20.3819580078125,6.08917236328125,20.15087890625,6.14202880859375,19.9300537109375L7.427001953125,14.5439453125C7.4755859375,14.3388671875,7.40533447265625,14.1239013671875,7.2449951171875,13.987060546875L3.041015625,10.385009765625C2.868896484375,10.2369384765625,2.802490234375,10.0001220703125,2.87261962890625,9.7841796875C2.94281005859375,9.5682373046875,3.1357421875,9.41552734375,3.36199951171875,9.39697265625L8.8800048828125,8.9549560546875C9.09051513671875,8.938232421875,9.27392578125,8.804931640625,9.35504150390625,8.6099853515625L11.48004150390625,3.5Z" stroke="currentColor" stroke-width="1.5"/>
</svg>
