<svg xmlns="http://www.w3.org/2000/svg" width="24" height="24" viewBox="0 0 24 24" fill="none">
  <path d="M12,3L12,5.25M18.364013671875,5.635986328125L16.77294921875,7.22698974609375M21,12L18.75,12M18.364013671875,18.364013671875L16.77294921875,16.77301025390625M12,18.75L12,21M7.2269287109375,16.77301025390625L5.635986328125,18.364013671875M5.25,12L3,12M7.2269287109375,7.22698974609375L5.635986328125,5.635986328125M15.75,12C15.75,14.071044921875,14.071044921875,15.75,12,15.75C9.928955078125,15.75,8.25,14.071044921875,8.25,12C8.25,9.928955078125,9.928955078125,8.25,12,8.25C14.071044921875,8.25,15.75,9.928955078125,15.75,12Z" stroke="currentColor" stroke-width="1.5" stroke-linecap="round"/>
</svg>
