<svg width="24" xmlns="http://www.w3.org/2000/svg" height="24" id="screenshot-e7b61c4e-e9ad-8043-8007-bc3c7eb06b9c" viewBox="0 0 24 24" xmlns:xlink="http://www.w3.org/1999/xlink" fill="none" version="1.1"><g id="shape-e7b61c4e-e9ad-8043-8007-bc3c7eb06b9c"><g class="frame-container-wrapper"><g class="frame-container-blur"><g class="frame-container-shadows"><g fill="none"><g class="fills" id="fills-e7b61c4e-e9ad-8043-8007-bc3c7eb06b9c"><rect rx="0" ry="0" x="0" y="0" width="24" height="24" transform="matrix(1.000000, 0.000000, 0.000000, 1.000000, 0.000000, 0.000000)" class="frame-background"/></g><g class="frame-children"><g id="shape-e7b61c4e-e9ad-8043-8007-bc3c7eb06b9d" rx="0" ry="0" style="fill: rgb(0, 0, 0);"><g id="shape-e7b61c4e-e9ad-8043-8007-bc3c7eb06b9e" style="display: none;"><g class="fills" id="fills-e7b61c4e-e9ad-8043-8007-bc3c7eb06b9e"><rect width="24" height="24" x="0" transform="matrix(1.000000, 0.000000, 0.000000, 1.000000, 0.000000, 0.000000)" style="fill: none;" ry="0" fill="none" rx="0" y="0"/></g><g fill="none" id="strokes-5c4093ee-5bf7-80c5-8007-bfe2785e14d8-e7b61c4e-e9ad-8043-8007-bc3c7eb06b9e" class="strokes"><g class="stroke-shape"><rect rx="0" ry="0" x="0" y="0" transform="matrix(1.000000, 0.000000, 0.000000, 1.000000, 0.000000, 0.000000)" width="24" height="24" style="fill: none; stroke-width: 1.5; stroke: rgb(0, 0, 0); stroke-opacity: 1;"/></g></g></g><g id="shape-e7b61c4e-e9ad-8043-8007-bc3c7eb06b9f"><g class="fills" id="fills-e7b61c4e-e9ad-8043-8007-bc3c7eb06b9f"><path d="M12,9.000005722045898L12,13.750005722045898M2.697021484375,17.1259822845459C1.8309326171875,18.6259822845459,2.9139404296875,20.5000057220459,4.64501953125,20.5000057220459L19.35498046875,20.5000057220459C21.0849609375,20.5000057220459,22.16796875,18.6259822845459,21.302978515625,17.1259822845459L13.948974609375,4.378057479858398C13.0830078125,2.8780572414398193,10.9169921875,2.8780572414398193,10.051025390625,4.378057479858398L2.697021484375,17.1259822845459L2.697021484375,17.1259822845459M12,16.7500057220459L12.0069580078125,16.7500057220459L12.0069580078125,16.7580623626709L12,16.7580623626709L12,16.7500057220459L12,16.7500057220459" fill="none" stroke-linejoin="round" style="fill: none;"/></g><g fill="none" stroke-linejoin="round" id="strokes-5c4093ee-5bf7-80c5-8007-bfe2785e7b01-e7b61c4e-e9ad-8043-8007-bc3c7eb06b9f" class="strokes"><g class="stroke-shape"><path d="M12,9.000005722045898L12,13.750005722045898M2.697021484375,17.1259822845459C1.8309326171875,18.6259822845459,2.9139404296875,20.5000057220459,4.64501953125,20.5000057220459L19.35498046875,20.5000057220459C21.0849609375,20.5000057220459,22.16796875,18.6259822845459,21.302978515625,17.1259822845459L13.948974609375,4.378057479858398C13.0830078125,2.8780572414398193,10.9169921875,2.8780572414398193,10.051025390625,4.378057479858398L2.697021484375,17.1259822845459L2.697021484375,17.1259822845459M12,16.7500057220459L12.0069580078125,16.7500057220459L12.0069580078125,16.7580623626709L12,16.7580623626709L12,16.7500057220459L12,16.7500057220459" style="fill: none; stroke-width: 1.5; stroke: rgb(0, 0, 0); stroke-opacity: 1; stroke-linecap: round;"/></g></g></g></g></g></g></g></g></g></g></svg>