<svg width="24" xmlns="http://www.w3.org/2000/svg" height="24" id="screenshot-c53ee40d-559c-809e-8007-bfde0de3458d" viewBox="0 0 24 24" xmlns:xlink="http://www.w3.org/1999/xlink" fill="none" version="1.1"><g id="shape-c53ee40d-559c-809e-8007-bfde0de3458d"><g class="frame-container-wrapper"><g class="frame-container-blur"><g class="frame-container-shadows"><g fill="none"><g class="fills" id="fills-c53ee40d-559c-809e-8007-bfde0de3458d"><rect rx="0" ry="0" x="0" y="0" width="24" height="24" transform="matrix(1.000000, 0.000000, 0.000000, 1.000000, 0.000000, 0.000000)" class="frame-background"/></g><g class="frame-children"><g id="shape-c53ee40d-559c-809e-8007-bfde0de3458e" rx="0" ry="0" style="fill: rgb(0, 0, 0);"><g id="shape-c53ee40d-559c-809e-8007-bfde0de3458f" style="display: none;"><g class="fills" id="fills-c53ee40d-559c-809e-8007-bfde0de3458f"><rect width="24" height="24" x="0" transform="matrix(1.000000, 0.000000, 0.000000, 1.000000, 0.000000, 0.000000)" style="fill: none;" ry="0" fill="none" rx="0" y="0"/></g><g fill="none" id="strokes-5c4093ee-5bf7-80c5-8007-bfe2786423a0-c53ee40d-559c-809e-8007-bfde0de3458f" class="strokes"><g class="stroke-shape"><rect rx="0" ry="0" x="0" y="0" transform="matrix(1.000000, 0.000000, 0.000000, 1.000000, 0.000000, 0.000000)" width="24" height="24" style="fill: none; stroke-width: 1.5; stroke: rgb(0, 0, 0); stroke-opacity: 1;"/></g></g></g><g id="shape-c53ee40d-559c-809e-8007-bfde0de34590"><g class="fills" id="fills-c53ee40d-559c-809e-8007-bfde0de34590"><path d="M20.25,7.5L19.625,18.1318359375C19.5550537109375,19.32177734375,18.5697021484375,20.25048828125,17.37799072265625,20.25L6.62200927734375,20.25C5.4302978515625,20.25048828125,4.44488525390625,19.32177734375,4.375,18.1318359375L3.75,7.5M10,11.25L14,11.25M3.375,7.5L20.625,7.5C21.2459716796875,7.5,21.75,6.99609375,21.75,6.375L21.75,4.875C21.75,4.25390625,21.2459716796875,3.75,20.625,3.75L3.375,3.75C2.75396728515625,3.75,2.25,4.25390625,2.25,4.875L2.25,6.375C2.25,6.99609375,2.75396728515625,7.5,3.375,7.5Z" fill="none" stroke-linejoin="round" style="fill: none;"/></g><g fill="none" stroke-linejoin="round" id="strokes-5c4093ee-5bf7-80c5-8007-bfe278647ba3-c53ee40d-559c-809e-8007-bfde0de34590" class="strokes"><g class="stroke-shape"><path d="M20.25,7.5L19.625,18.1318359375C19.5550537109375,19.32177734375,18.5697021484375,20.25048828125,17.37799072265625,20.25L6.62200927734375,20.25C5.4302978515625,20.25048828125,4.44488525390625,19.32177734375,4.375,18.1318359375L3.75,7.5M10,11.25L14,11.25M3.375,7.5L20.625,7.5C21.2459716796875,7.5,21.75,6.99609375,21.75,6.375L21.75,4.875C21.75,4.25390625,21.2459716796875,3.75,20.625,3.75L3.375,3.75C2.75396728515625,3.75,2.25,4.25390625,2.25,4.875L2.25,6.375C2.25,6.99609375,2.75396728515625,7.5,3.375,7.5Z" style="fill: none; stroke-width: 1.5; stroke: rgb(0, 0, 0); stroke-opacity: 1;"/></g></g></g></g></g></g></g></g></g></g></svg>