<svg width="24" xmlns="http://www.w3.org/2000/svg" height="24" id="screenshot-e7b61c4e-e9ad-8043-8007-bc3c7eb06b88" viewBox="0 0 24 24" xmlns:xlink="http://www.w3.org/1999/xlink" fill="none" version="1.1"><g id="shape-e7b61c4e-e9ad-8043-8007-bc3c7eb06b88"><g class="frame-container-wrapper"><g class="frame-container-blur"><g class="frame-container-shadows"><g fill="none"><g class="fills" id="fills-e7b61c4e-e9ad-8043-8007-bc3c7eb06b88"><rect rx="0" ry="0" x="0" y="0" width="24" height="24" transform="matrix(1.000000, 0.000000, 0.000000, 1.000000, 0.000000, 0.000000)" class="frame-background"/></g><g class="frame-children"><g id="shape-e7b61c4e-e9ad-8043-8007-bc3c7eb06b89" rx="0" ry="0" style="fill: rgb(0, 0, 0);"><g id="shape-e7b61c4e-e9ad-8043-8007-bc3c7eb06b8a" style="display: none;"><g class="fills" id="fills-e7b61c4e-e9ad-8043-8007-bc3c7eb06b8a"><rect width="24" height="24" x="0" transform="matrix(1.000000, 0.000000, 0.000000, 1.000000, 0.000000, 0.000000)" style="fill: none;" ry="0" fill="none" rx="0" y="0"/></g><g fill="none" id="strokes-5c4093ee-5bf7-80c5-8007-bfe2784dedac-e7b61c4e-e9ad-8043-8007-bc3c7eb06b8a" class="strokes"><g class="stroke-shape"><rect rx="0" ry="0" x="0" y="0" transform="matrix(1.000000, 0.000000, 0.000000, 1.000000, 0.000000, 0.000000)" width="24" height="24" style="fill: none; stroke-width: 1.5; stroke: rgb(0, 0, 0); stroke-opacity: 1;"/></g></g></g><g id="shape-e7b61c4e-e9ad-8043-8007-bc3c7eb06b8b"><g class="fills" id="fills-e7b61c4e-e9ad-8043-8007-bc3c7eb06b8b"><path d="M5.988037109375,10.22998046875C5.8807373046875,12.28662109375,5.0684814453125,14.24365234375,3.68798828125,15.77197265625C5.448486328125,16.421875,7.2794189453125,16.861328125,9.1429443359375,17.08203125C10.4183349609375,17.23291015625,10.716796875,17.052734375,12,17L14,19C14,20,12.55517578125,21.40966796875,11.0020751953125,20.8701171875C9.4490966796875,20.330078125,8.6199951171875,18.640625,9.1429443359375,17.08203125M16.7750244140625,16.77490234375L6.530029296875,6.52978515625C7.6923828125,3.951171875,10.4979248046875,2.53466796875,13.2630615234375,3.1298828125C16.0283203125,3.7255859375,18.0020751953125,6.17138671875,18,9L18,9.75C17.9967041015625,11.974609375,18.8203125,14.12060546875,20.31103515625,15.77197265625C19.159912109375,16.19677734375,17.977783203125,16.5322265625,16.7750244140625,16.77490234375L21,21M3,3L6.530029296875,6.52978515625" fill="none" stroke-linejoin="round" style="fill: none;"/></g><g fill="none" stroke-linejoin="round" id="strokes-5c4093ee-5bf7-80c5-8007-bfe2784e25d9-e7b61c4e-e9ad-8043-8007-bc3c7eb06b8b" class="strokes"><g class="stroke-shape"><path d="M5.988037109375,10.22998046875C5.8807373046875,12.28662109375,5.0684814453125,14.24365234375,3.68798828125,15.77197265625C5.448486328125,16.421875,7.2794189453125,16.861328125,9.1429443359375,17.08203125C10.4183349609375,17.23291015625,10.716796875,17.052734375,12,17L14,19C14,20,12.55517578125,21.40966796875,11.0020751953125,20.8701171875C9.4490966796875,20.330078125,8.6199951171875,18.640625,9.1429443359375,17.08203125M16.7750244140625,16.77490234375L6.530029296875,6.52978515625C7.6923828125,3.951171875,10.4979248046875,2.53466796875,13.2630615234375,3.1298828125C16.0283203125,3.7255859375,18.0020751953125,6.17138671875,18,9L18,9.75C17.9967041015625,11.974609375,18.8203125,14.12060546875,20.31103515625,15.77197265625C19.159912109375,16.19677734375,17.977783203125,16.5322265625,16.7750244140625,16.77490234375L21,21M3,3L6.530029296875,6.52978515625" style="fill: none; stroke-width: 1.5; stroke: rgb(0, 0, 0); stroke-opacity: 1;"/></g></g></g></g></g></g></g></g></g></g></svg>