<svg width="24" xmlns="http://www.w3.org/2000/svg" height="24" id="screenshot-e7b61c4e-e9ad-8043-8007-bc3c7eb06b84" viewBox="0 0 24 24" xmlns:xlink="http://www.w3.org/1999/xlink" fill="none" version="1.1"><g id="shape-e7b61c4e-e9ad-8043-8007-bc3c7eb06b84"><g class="frame-container-wrapper"><g class="frame-container-blur"><g class="frame-container-shadows"><g fill="none"><g class="fills" id="fills-e7b61c4e-e9ad-8043-8007-bc3c7eb06b84"><rect rx="0" ry="0" x="0" y="0" width="24" height="24" transform="matrix(1.000000, 0.000000, 0.000000, 1.000000, 0.000000, 0.000000)" class="frame-background"/></g><g class="frame-children"><g id="shape-e7b61c4e-e9ad-8043-8007-bc3c7eb06b85" rx="0" ry="0" style="fill: rgb(0, 0, 0);"><g id="shape-e7b61c4e-e9ad-8043-8007-bc3c7eb06b86" style="display: none;"><g class="fills" id="fills-e7b61c4e-e9ad-8043-8007-bc3c7eb06b86"><rect width="24" height="24" x="0" transform="matrix(1.000000, 0.000000, 0.000000, 1.000000, 0.000000, 0.000000)" style="fill: none;" ry="0" fill="none" rx="0" y="0"/></g><g fill="none" id="strokes-9b950c46-cc20-8029-8007-c0035ced1bb8-e7b61c4e-e9ad-8043-8007-bc3c7eb06b86" class="strokes"><g class="stroke-shape"><rect rx="0" ry="0" x="0" y="0" transform="matrix(1.000000, 0.000000, 0.000000, 1.000000, 0.000000, 0.000000)" width="24" height="24" style="fill: none; stroke-width: 1.5; stroke: rgb(0, 0, 0); stroke-opacity: 1;"/></g></g></g><g id="shape-e7b61c4e-e9ad-8043-8007-bc3c7eb06b87"><g class="fills" id="fills-e7b61c4e-e9ad-8043-8007-bc3c7eb06b87"><path d="M14.85693359375,17.082015991210938C16.72021484375,16.861404418945312,18.5509033203125,16.421707153320312,20.31103515625,15.772018432617188C18.8203125,14.120803833007812,17.9967041015625,11.974502563476562,18,9.750015258789062L18,9.050003051757812L18,9.000015258789062C18,5.6862945556640625,15.313720703125,3.0000152587890625,12,3.0000152587890625C8.686279296875,3.0000152587890625,6,5.6862945556640625,6,9.000015258789062L6,9.750015258789062C6.0030517578125,11.974624633789062,5.178955078125,14.120956420898438,3.68798828125,15.772018432617188C5.4210205078125,16.412002563476562,7.248046875,16.857009887695312,9.1429443359375,17.082015991210938C11.041015625,17.307144165039062,12.958984375,17.307144165039062,14.85693359375,17.082015991210938C15.2525634765625,18.316818237304688,14.81005859375,19.665985107421875,13.760009765625,20.426666259765625C12.7099609375,21.187347412109375,11.2900390625,21.187347412109375,10.239990234375,20.426666259765625C9.18994140625,19.665985107421875,8.7474365234375,18.316818237304688,9.1429443359375,17.082015991210938M3.1240234375,7.5000152587890625C3.406005859375,5.8249664306640625,4.1578369140625,4.2644500732421875,5.2919921875,3.0000152587890625M18.7080078125,3.0000152587890625C19.8421630859375,4.2644500732421875,20.593994140625,5.8249664306640625,20.8759765625,7.5000152587890625" fill="none" stroke-linejoin="round" style="fill: none;"/></g><g fill="none" stroke-linejoin="round" id="strokes-9b950c46-cc20-8029-8007-c0035cee59e1-e7b61c4e-e9ad-8043-8007-bc3c7eb06b87" class="strokes"><g class="stroke-shape"><path d="M14.85693359375,17.082015991210938C16.72021484375,16.861404418945312,18.5509033203125,16.421707153320312,20.31103515625,15.772018432617188C18.8203125,14.120803833007812,17.9967041015625,11.974502563476562,18,9.750015258789062L18,9.050003051757812L18,9.000015258789062C18,5.6862945556640625,15.313720703125,3.0000152587890625,12,3.0000152587890625C8.686279296875,3.0000152587890625,6,5.6862945556640625,6,9.000015258789062L6,9.750015258789062C6.0030517578125,11.974624633789062,5.178955078125,14.120956420898438,3.68798828125,15.772018432617188C5.4210205078125,16.412002563476562,7.248046875,16.857009887695312,9.1429443359375,17.082015991210938C11.041015625,17.307144165039062,12.958984375,17.307144165039062,14.85693359375,17.082015991210938C15.2525634765625,18.316818237304688,14.81005859375,19.665985107421875,13.760009765625,20.426666259765625C12.7099609375,21.187347412109375,11.2900390625,21.187347412109375,10.239990234375,20.426666259765625C9.18994140625,19.665985107421875,8.7474365234375,18.316818237304688,9.1429443359375,17.082015991210938M3.1240234375,7.5000152587890625C3.406005859375,5.8249664306640625,4.1578369140625,4.2644500732421875,5.2919921875,3.0000152587890625M18.7080078125,3.0000152587890625C19.8421630859375,4.2644500732421875,20.593994140625,5.8249664306640625,20.8759765625,7.5000152587890625" style="fill: none; stroke-width: 1.5; stroke: rgb(0, 0, 0); stroke-opacity: 1; stroke-linecap: round;"/></g></g></g></g></g></g></g></g></g></g></svg>