<svg width="24" xmlns="http://www.w3.org/2000/svg" height="24" id="screenshot-e7b61c4e-e9ad-8043-8007-bc3c7eb06b8c" viewBox="0 0 24 24" xmlns:xlink="http://www.w3.org/1999/xlink" fill="none" version="1.1"><g id="shape-e7b61c4e-e9ad-8043-8007-bc3c7eb06b8c"><g class="frame-container-wrapper"><g class="frame-container-blur"><g class="frame-container-shadows"><g fill="none"><g class="fills" id="fills-e7b61c4e-e9ad-8043-8007-bc3c7eb06b8c"><rect rx="0" ry="0" x="0" y="0" width="23.999999999999773" height="24" transform="matrix(1.000000, 0.000000, 0.000000, 1.000000, 0.000000, 0.000000)" class="frame-background"/></g><g class="frame-children"><g id="shape-e7b61c4e-e9ad-8043-8007-bc3c7eb06b8d" rx="0" ry="0" style="fill: rgb(0, 0, 0);"><g id="shape-e7b61c4e-e9ad-8043-8007-bc3c7eb06b8e" style="display: none;"><g class="fills" id="fills-e7b61c4e-e9ad-8043-8007-bc3c7eb06b8e"><rect width="23.999999999999773" height="24" x="0" transform="matrix(1.000000, 0.000000, 0.000000, 1.000000, 0.000000, 0.000000)" style="fill: none;" ry="0" fill="none" rx="0" y="0"/></g><g fill="none" id="strokes-5c4093ee-5bf7-80c5-8007-bfe2785f0adc-e7b61c4e-e9ad-8043-8007-bc3c7eb06b8e" class="strokes"><g class="inner-stroke-shape" transform="matrix(1.000000, 0.000000, 0.000000, 1.000000, 0.000000, 0.000000)"><defs><clipPath id="inner-stroke-render-117-e7b61c4e-e9ad-8043-8007-bc3c7eb06b8e-0"><use href="#stroke-shape-render-117-e7b61c4e-e9ad-8043-8007-bc3c7eb06b8e-0"/></clipPath><rect rx="0" ry="0" x="0" y="0" width="23.999999999999773" height="24" id="stroke-shape-render-117-e7b61c4e-e9ad-8043-8007-bc3c7eb06b8e-0" style="fill: none; stroke-width: 3; stroke: rgb(0, 0, 0); stroke-opacity: 1;"/></defs><use href="#stroke-shape-render-117-e7b61c4e-e9ad-8043-8007-bc3c7eb06b8e-0" clip-path="url('#inner-stroke-render-117-e7b61c4e-e9ad-8043-8007-bc3c7eb06b8e-0')"/></g></g></g><g id="shape-e7b61c4e-e9ad-8043-8007-bc3c7eb06b8f"><g class="fills" id="fills-e7b61c4e-e9ad-8043-8007-bc3c7eb06b8f"><path d="M14.85693359375,17.082048416137695C16.72021484375,16.861345291137695,18.5509033203125,16.421892166137695,20.31103515625,15.771990776062012C18.8203125,14.120623588562012,17.9967041015625,11.974627494812012,18,9.750018119812012L18,9.049822807312012L18,9.000018119812012C18,5.686541557312012,15.313720703125,3.0000181198120117,12,3.0000181198120117C8.686279296875,3.0000181198120117,6,5.686541557312012,6,9.000018119812012L6,9.750018119812012C6.0030517578125,11.974627494812012,5.178955078125,14.121111869812012,3.68798828125,15.771990776062012C5.4210205078125,16.412126541137695,7.2479248046875,16.856950759887695,9.1429443359375,17.082048416137695M14.85693359375,17.082048416137695C12.958984375,17.307146072387695,11.041015625,17.307146072387695,9.1429443359375,17.082048416137695M14.85693359375,17.082048416137695C15.2525634765625,18.316911697387695,14.81005859375,19.666032791137695,13.760009765625,20.426774978637695C12.7099609375,21.187517166137695,11.2900390625,21.187517166137695,10.239990234375,20.426774978637695C9.18994140625,19.666032791137695,8.7474365234375,18.316911697387695,9.1429443359375,17.082048416137695" fill="none" stroke-linejoin="round" style="fill: none;"/></g><g fill="none" stroke-linejoin="round" id="strokes-5c4093ee-5bf7-80c5-8007-bfe2785fb5f5-e7b61c4e-e9ad-8043-8007-bc3c7eb06b8f" class="strokes"><g class="stroke-shape"><path d="M14.85693359375,17.082048416137695C16.72021484375,16.861345291137695,18.5509033203125,16.421892166137695,20.31103515625,15.771990776062012C18.8203125,14.120623588562012,17.9967041015625,11.974627494812012,18,9.750018119812012L18,9.049822807312012L18,9.000018119812012C18,5.686541557312012,15.313720703125,3.0000181198120117,12,3.0000181198120117C8.686279296875,3.0000181198120117,6,5.686541557312012,6,9.000018119812012L6,9.750018119812012C6.0030517578125,11.974627494812012,5.178955078125,14.121111869812012,3.68798828125,15.771990776062012C5.4210205078125,16.412126541137695,7.2479248046875,16.856950759887695,9.1429443359375,17.082048416137695M14.85693359375,17.082048416137695C12.958984375,17.307146072387695,11.041015625,17.307146072387695,9.1429443359375,17.082048416137695M14.85693359375,17.082048416137695C15.2525634765625,18.316911697387695,14.81005859375,19.666032791137695,13.760009765625,20.426774978637695C12.7099609375,21.187517166137695,11.2900390625,21.187517166137695,10.239990234375,20.426774978637695C9.18994140625,19.666032791137695,8.7474365234375,18.316911697387695,9.1429443359375,17.082048416137695" style="fill: none; stroke-width: 1.5; stroke: rgb(0, 0, 0); stroke-opacity: 1;"/></g></g></g></g></g></g></g></g></g></g></svg>