<svg width="24" xmlns="http://www.w3.org/2000/svg" height="24" id="screenshot-c53ee40d-559c-809e-8007-bfe209f2f84f" viewBox="0 0 24 24" xmlns:xlink="http://www.w3.org/1999/xlink" fill="none" version="1.1"><g id="shape-c53ee40d-559c-809e-8007-bfe209f2f84f"><g class="frame-container-wrapper"><g class="frame-container-blur"><g class="frame-container-shadows"><g fill="none"><g class="fills" id="fills-c53ee40d-559c-809e-8007-bfe209f2f84f"><rect rx="0" ry="0" x="0" y="0" width="24" height="24" transform="matrix(1.000000, 0.000000, 0.000000, 1.000000, 0.000000, 0.000000)" class="frame-background"/></g><g class="frame-children"><g id="shape-c53ee40d-559c-809e-8007-bfe209f2f850" rx="0" ry="0" style="fill: rgb(0, 0, 0);"><g id="shape-c53ee40d-559c-809e-8007-bfe209f2f851" style="display: none;"><g class="fills" id="fills-c53ee40d-559c-809e-8007-bfe209f2f851"><rect width="24" height="24" x="0" transform="matrix(1.000000, 0.000000, 0.000000, 1.000000, 0.000000, 0.000000)" style="fill: none;" ry="0" fill="none" rx="0" y="0"/></g><g fill="none" id="strokes-5c4093ee-5bf7-80c5-8007-bfe278553527-c53ee40d-559c-809e-8007-bfe209f2f851" class="strokes"><g class="stroke-shape"><rect rx="0" ry="0" x="0" y="0" transform="matrix(1.000000, 0.000000, 0.000000, 1.000000, 0.000000, 0.000000)" width="24" height="24" style="fill: none; stroke-width: 1.5; stroke: rgb(0, 0, 0); stroke-opacity: 1;"/></g></g></g><g id="shape-c53ee40d-559c-809e-8007-bfe209f2f852"><g class="fills" id="fills-c53ee40d-559c-809e-8007-bfe209f2f852"><path d="M6.75,3L6.75,5.25M17.25,3L17.25,5.25M3,18.75L3,7.5C3,6.25732421875,4.00732421875,5.25,5.25,5.25L18.75,5.25C19.99261474609375,5.25,21,6.25732421875,21,7.5L21,18.75M3,18.75C3,19.99267578125,4.00732421875,21,5.25,21L18.75,21C19.99261474609375,21,21,19.99267578125,21,18.75M3,18.75L3,11.25C3,10.00732421875,4.00732421875,9,5.25,9L18.75,9C19.99261474609375,9,21,10.00732421875,21,11.25L21,18.75" fill="none" stroke-linejoin="round" style="fill: none;"/></g><g fill="none" stroke-linejoin="round" id="strokes-5c4093ee-5bf7-80c5-8007-bfe2785565d1-c53ee40d-559c-809e-8007-bfe209f2f852" class="strokes"><g class="stroke-shape"><path d="M6.75,3L6.75,5.25M17.25,3L17.25,5.25M3,18.75L3,7.5C3,6.25732421875,4.00732421875,5.25,5.25,5.25L18.75,5.25C19.99261474609375,5.25,21,6.25732421875,21,7.5L21,18.75M3,18.75C3,19.99267578125,4.00732421875,21,5.25,21L18.75,21C19.99261474609375,21,21,19.99267578125,21,18.75M3,18.75L3,11.25C3,10.00732421875,4.00732421875,9,5.25,9L18.75,9C19.99261474609375,9,21,10.00732421875,21,11.25L21,18.75" style="fill: none; stroke-width: 1.5; stroke: rgb(0, 0, 0); stroke-opacity: 1; stroke-linecap: round;"/></g></g></g></g></g></g></g></g></g></g></svg>