<svg width="24" xmlns="http://www.w3.org/2000/svg" height="24" id="screenshot-e7b61c4e-e9ad-8043-8007-bc3c7eb06bbc" viewBox="0 0 24 24" xmlns:xlink="http://www.w3.org/1999/xlink" fill="none" version="1.1"><g id="shape-e7b61c4e-e9ad-8043-8007-bc3c7eb06bbc"><g class="frame-container-wrapper"><g class="frame-container-blur"><g class="frame-container-shadows"><g fill="none"><g class="fills" id="fills-e7b61c4e-e9ad-8043-8007-bc3c7eb06bbc"><rect rx="0" ry="0" x="0" y="0" width="24" height="24" transform="matrix(1.000000, 0.000000, 0.000000, 1.000000, 0.000000, 0.000000)" class="frame-background"/></g><g class="frame-children"><g id="shape-e7b61c4e-e9ad-8043-8007-bc3c7eb06bbd" rx="0" ry="0" style="fill: rgb(0, 0, 0);"><g id="shape-e7b61c4e-e9ad-8043-8007-bc3c7eb06bbe" style="display: none;"><g class="fills" id="fills-e7b61c4e-e9ad-8043-8007-bc3c7eb06bbe"><rect width="24" height="24" x="0" transform="matrix(1.000000, 0.000000, 0.000000, 1.000000, 0.000000, 0.000000)" style="fill: none;" ry="0" fill="none" rx="0" y="0"/></g><g fill="none" id="strokes-5c4093ee-5bf7-80c5-8007-bfe2784093e0-e7b61c4e-e9ad-8043-8007-bc3c7eb06bbe" class="strokes"><g class="stroke-shape"><rect rx="0" ry="0" x="0" y="0" transform="matrix(1.000000, 0.000000, 0.000000, 1.000000, 0.000000, 0.000000)" width="24" height="24" style="fill: none; stroke-width: 1.5; stroke: rgb(0, 0, 0); stroke-opacity: 1;"/></g></g></g><g id="shape-e7b61c4e-e9ad-8043-8007-bc3c7eb06bbf"><g class="fills" id="fills-e7b61c4e-e9ad-8043-8007-bc3c7eb06bbf"><path d="M15.75,10.5L20.469970703125,5.780029296875C20.6844482421875,5.565673828125,21.0068359375,5.501708984375,21.286865234375,5.61767578125C21.5670166015625,5.733642578125,21.749755859375,6.0068359375,21.75,6.31005859375L21.75,17.68994140625C21.749755859375,17.9931640625,21.5670166015625,18.266357421875,21.286865234375,18.38232421875C21.0068359375,18.498291015625,20.6844482421875,18.434326171875,20.469970703125,18.219970703125L15.75,13.5M12,18.75L4.5,18.75C3.25732421875,18.75,2.25,17.74267578125,2.25,16.5L2.25,9M15.0909423828125,18.091064453125L16.5,19.5M15.0909423828125,18.091064453125C15.4979248046875,17.68408203125,15.75,17.12109375,15.75,16.5L15.75,7.5C15.75,6.25732421875,14.7425537109375,5.25,13.5,5.25L4.5,5.25C3.8790283203125,5.25,3.31591796875,5.501953125,2.908935546875,5.908935546875M15.0909423828125,18.091064453125L2.908935546875,5.908935546875M1.5,4.5L2.908935546875,5.908935546875" fill="none" stroke-linejoin="round" style="fill: none;"/></g><g fill="none" stroke-linejoin="round" id="strokes-5c4093ee-5bf7-80c5-8007-bfe2784187e9-e7b61c4e-e9ad-8043-8007-bc3c7eb06bbf" class="strokes"><g class="stroke-shape"><path d="M15.75,10.5L20.469970703125,5.780029296875C20.6844482421875,5.565673828125,21.0068359375,5.501708984375,21.286865234375,5.61767578125C21.5670166015625,5.733642578125,21.749755859375,6.0068359375,21.75,6.31005859375L21.75,17.68994140625C21.749755859375,17.9931640625,21.5670166015625,18.266357421875,21.286865234375,18.38232421875C21.0068359375,18.498291015625,20.6844482421875,18.434326171875,20.469970703125,18.219970703125L15.75,13.5M12,18.75L4.5,18.75C3.25732421875,18.75,2.25,17.74267578125,2.25,16.5L2.25,9M15.0909423828125,18.091064453125L16.5,19.5M15.0909423828125,18.091064453125C15.4979248046875,17.68408203125,15.75,17.12109375,15.75,16.5L15.75,7.5C15.75,6.25732421875,14.7425537109375,5.25,13.5,5.25L4.5,5.25C3.8790283203125,5.25,3.31591796875,5.501953125,2.908935546875,5.908935546875M15.0909423828125,18.091064453125L2.908935546875,5.908935546875M1.5,4.5L2.908935546875,5.908935546875" style="fill: none; stroke-width: 1.5; stroke: rgb(0, 0, 0); stroke-opacity: 1;"/></g></g></g></g></g></g></g></g></g></g></svg>