<svg width="24" xmlns="http://www.w3.org/2000/svg" height="24" id="screenshot-e7b61c4e-e9ad-8043-8007-bfcfdca3bec8" viewBox="0 0 24 24" xmlns:xlink="http://www.w3.org/1999/xlink" fill="none" version="1.1"><g id="shape-e7b61c4e-e9ad-8043-8007-bfcfdca3bec8"><g class="frame-container-wrapper"><g class="frame-container-blur"><g class="frame-container-shadows"><g fill="none"><g class="fills" id="fills-e7b61c4e-e9ad-8043-8007-bfcfdca3bec8"><rect rx="0" ry="0" x="0" y="0" width="24" height="24" transform="matrix(1.000000, 0.000000, 0.000000, 1.000000, 0.000000, 0.000000)" class="frame-background"/></g><g class="frame-children"><g id="shape-e7b61c4e-e9ad-8043-8007-bfcfdca3bec9" rx="0" ry="0" style="fill: rgb(0, 0, 0);"><g id="shape-e7b61c4e-e9ad-8043-8007-bfcfdca3beca" style="display: none;"><g class="fills" id="fills-e7b61c4e-e9ad-8043-8007-bfcfdca3beca"><rect width="24" height="24" x="0" transform="matrix(1.000000, 0.000000, 0.000000, 1.000000, 0.000000, 0.000000)" style="fill: none;" ry="0" fill="none" rx="0" y="0"/></g><g fill="none" id="strokes-5c4093ee-5bf7-80c5-8007-bfe278624cc2-e7b61c4e-e9ad-8043-8007-bfcfdca3beca" class="strokes"><g class="stroke-shape"><rect rx="0" ry="0" x="0" y="0" transform="matrix(1.000000, 0.000000, 0.000000, 1.000000, 0.000000, 0.000000)" width="24" height="24" style="fill: none; stroke-width: 1.5; stroke: rgb(0, 0, 0); stroke-opacity: 1;"/></g></g></g><g id="shape-e7b61c4e-e9ad-8043-8007-bfcfdca3becb"><g class="fills" id="fills-e7b61c4e-e9ad-8043-8007-bfcfdca3becb"><path d="M12,20.249998092651367C16.969970703125,20.249998092651367,21,16.556028366088867,21,11.999999046325684C21,7.443968296051025,16.969970703125,3.7499985694885254,12,3.7499985694885254C7.030029296875,3.7499985694885254,3,7.443968296051025,3,11.999999046325684C3,14.104002952575684,3.8590087890625,16.022947311401367,5.27294921875,17.479978561401367C5.5087890625,17.723997116088867,5.9996337890625,18.157163619995117,6.40087890625,18.495298385620117C7,18.999998092651367,7,19.999998092651367,7,19.999998092651367C7,20.999998092651367,7,19.999998092651367,7,20.999998092651367C7.35107421875,21.063108444213867,7.748046875,21.252622604370117,8,20.999998092651367C9,19.999998092651367,11.113037109375,20.249998092651367,12,20.249998092651367L12,20.249998092651367" fill="none" stroke-linejoin="round" style="fill: none;"/></g><g fill="none" stroke-linejoin="round" id="strokes-5c4093ee-5bf7-80c5-8007-bfe27862a90e-e7b61c4e-e9ad-8043-8007-bfcfdca3becb" class="strokes"><g class="stroke-shape"><path d="M12,20.249998092651367C16.969970703125,20.249998092651367,21,16.556028366088867,21,11.999999046325684C21,7.443968296051025,16.969970703125,3.7499985694885254,12,3.7499985694885254C7.030029296875,3.7499985694885254,3,7.443968296051025,3,11.999999046325684C3,14.104002952575684,3.8590087890625,16.022947311401367,5.27294921875,17.479978561401367C5.5087890625,17.723997116088867,5.9996337890625,18.157163619995117,6.40087890625,18.495298385620117C7,18.999998092651367,7,19.999998092651367,7,19.999998092651367C7,20.999998092651367,7,19.999998092651367,7,20.999998092651367C7.35107421875,21.063108444213867,7.748046875,21.252622604370117,8,20.999998092651367C9,19.999998092651367,11.113037109375,20.249998092651367,12,20.249998092651367L12,20.249998092651367" style="fill: none; stroke-width: 1.5; stroke: rgb(0, 0, 0); stroke-opacity: 1;"/></g></g></g></g></g></g></g></g></g></g></svg>