<svg width="20" xmlns="http://www.w3.org/2000/svg" height="20" id="screenshot-e7b61c4e-e9ad-8043-8007-bfd70f8fe6e6" viewBox="0 0 20 20" xmlns:xlink="http://www.w3.org/1999/xlink" fill="none" version="1.1"><g id="shape-e7b61c4e-e9ad-8043-8007-bfd70f8fe6e6"><g class="frame-container-wrapper"><g class="frame-container-blur"><g class="frame-container-shadows"><g fill="none"><g class="fills" id="fills-e7b61c4e-e9ad-8043-8007-bfd70f8fe6e6"><rect rx="0" ry="0" x="0" y="0" width="20" height="20" transform="matrix(1.000000, 0.000000, 0.000000, 1.000000, 0.000000, 0.000000)" class="frame-background"/></g><g class="frame-children"><g id="shape-e7b61c4e-e9ad-8043-8007-bfd70f8fe6e7" rx="0" ry="0" style="fill: rgb(0, 0, 0);"><g id="shape-e7b61c4e-e9ad-8043-8007-bfd70f8fe6e8" style="display: none;"><g class="fills" id="fills-e7b61c4e-e9ad-8043-8007-bfd70f8fe6e8"><rect width="20" height="20" x="0" transform="matrix(1.000000, 0.000000, 0.000000, 1.000000, 0.000000, 0.000000)" style="fill: none;" ry="0" fill="none" rx="0" y="0"/></g></g><g id="shape-e7b61c4e-e9ad-8043-8007-bfd70f8fe6e9"><g class="fills" id="fills-e7b61c4e-e9ad-8043-8007-bfd70f8fe6e9"><path d="M10.75,2.75C10.75,2.3359375,10.4141845703125,2,10,2C9.585693359375,2,9.25,2.3359375,9.25,2.75L9.25,11.36376953125L6.294921875,8.23486328125C6.112548828125,8.03369140625,5.83544921875,7.94677734375,5.5706787109375,8.0078125C5.305908203125,8.06884765625,5.0948486328125,8.26806640625,5.0189208984375,8.52880859375C4.9429931640625,8.7900390625,5.01416015625,9.0712890625,5.2049560546875,9.26513671875L9.4549560546875,13.76513671875C9.5965576171875,13.9150390625,9.793701171875,14,10,14C10.2061767578125,14,10.4033203125,13.9150390625,10.544921875,13.76513671875L14.794921875,9.26513671875C15.06884765625,8.96240234375,15.05078125,8.49658203125,14.754150390625,8.21630859375C14.4576416015625,7.93603515625,13.991455078125,7.9443359375,13.7049560546875,8.23486328125L10.75,11.36376953125L10.75,2.75Z" style="fill: rgb(0, 0, 0);"/></g></g><g id="shape-e7b61c4e-e9ad-8043-8007-bfd70f8fe6ea"><g class="fills" id="fills-e7b61c4e-e9ad-8043-8007-bfd70f8fe6ea"><path d="M3.5,12.75C3.5,12.3359375,3.1641845703125,12,2.75,12C2.335693359375,12,2,12.3359375,2,12.75L2,15.25C2,16.7685546875,3.231201171875,18,4.75,18L15.25,18C16.7686767578125,18,18,16.7685546875,18,15.25L18,12.75C18,12.3359375,17.6641845703125,12,17.25,12C16.835693359375,12,16.5,12.3359375,16.5,12.75L16.5,15.25C16.5,15.93994140625,15.93994140625,16.5,15.25,16.5L4.75,16.5C4.0599365234375,16.5,3.5,15.93994140625,3.5,15.25L3.5,12.75Z" style="fill: rgb(0, 0, 0);"/></g></g></g></g></g></g></g></g></g></svg>