<svg width="24" xmlns="http://www.w3.org/2000/svg" height="24" id="screenshot-c53ee40d-559c-809e-8007-bfd88810ef4c" viewBox="0 0 24 24" xmlns:xlink="http://www.w3.org/1999/xlink" fill="none" version="1.1"><g id="shape-c53ee40d-559c-809e-8007-bfd88810ef4c"><g class="frame-container-wrapper"><g class="frame-container-blur"><g class="frame-container-shadows"><g fill="none"><g class="fills" id="fills-c53ee40d-559c-809e-8007-bfd88810ef4c"><rect rx="0" ry="0" x="0" y="0" width="24" height="24" transform="matrix(1.000000, 0.000000, 0.000000, 1.000000, 0.000000, 0.000000)" class="frame-background"/></g><g class="frame-children"><g id="shape-c53ee40d-559c-809e-8007-bfd88810ef4d" rx="0" ry="0" style="fill: rgb(0, 0, 0);"><g id="shape-c53ee40d-559c-809e-8007-bfd88810ef4e" style="display: none;"><g class="fills" id="fills-c53ee40d-559c-809e-8007-bfd88810ef4e"><rect width="24" height="24" x="0" transform="matrix(1.000000, 0.000000, 0.000000, 1.000000, 0.000000, 0.000000)" style="fill: none;" ry="0" fill="none" rx="0" y="0"/></g><g fill="none" id="strokes-5c4093ee-5bf7-80c5-8007-bfe2786c0572-c53ee40d-559c-809e-8007-bfd88810ef4e" class="strokes"><g class="stroke-shape"><rect rx="0" ry="0" x="0" y="0" transform="matrix(1.000000, 0.000000, 0.000000, 1.000000, 0.000000, 0.000000)" width="24" height="24" style="fill: none; stroke-width: 1.5; stroke: rgb(0, 0, 0); stroke-opacity: 1;"/></g></g></g><g id="shape-c53ee40d-559c-809e-8007-bfd88810ef4f"><g class="fills" id="fills-c53ee40d-559c-809e-8007-bfd88810ef4f"><path d="M6.75006103515625,11.999998092651367C6.75006103515625,12.414182662963867,6.41424560546875,12.749998092651367,6.00006103515625,12.749998092651367C5.58575439453125,12.749998092651367,5.25006103515625,12.414182662963867,5.25006103515625,11.999998092651367C5.25006103515625,11.585813522338867,5.58575439453125,11.249998092651367,6.00006103515625,11.249998092651367C6.41424560546875,11.249998092651367,6.75006103515625,11.585813522338867,6.75006103515625,11.999998092651367ZM12.75006103515625,11.999998092651367C12.75006103515625,12.414182662963867,12.41424560546875,12.749998092651367,12.00006103515625,12.749998092651367C11.58575439453125,12.749998092651367,11.25006103515625,12.414182662963867,11.25006103515625,11.999998092651367C11.25006103515625,11.585813522338867,11.58575439453125,11.249998092651367,12.00006103515625,11.249998092651367C12.41424560546875,11.249998092651367,12.75006103515625,11.585813522338867,12.75006103515625,11.999998092651367ZM18.75,11.999998092651367C18.75,12.414182662963867,18.4141845703125,12.749998092651367,18,12.749998092651367C17.585693359375,12.749998092651367,17.25,12.414182662963867,17.25,11.999998092651367C17.25,11.585813522338867,17.585693359375,11.249998092651367,18,11.249998092651367C18.4141845703125,11.249998092651367,18.75,11.585813522338867,18.75,11.999998092651367Z" fill="none" stroke-linejoin="round" style="fill: none;"/></g><g fill="none" stroke-linejoin="round" id="strokes-5c4093ee-5bf7-80c5-8007-bfe2786c4520-c53ee40d-559c-809e-8007-bfd88810ef4f" class="strokes"><g class="stroke-shape"><path d="M6.75006103515625,11.999998092651367C6.75006103515625,12.414182662963867,6.41424560546875,12.749998092651367,6.00006103515625,12.749998092651367C5.58575439453125,12.749998092651367,5.25006103515625,12.414182662963867,5.25006103515625,11.999998092651367C5.25006103515625,11.585813522338867,5.58575439453125,11.249998092651367,6.00006103515625,11.249998092651367C6.41424560546875,11.249998092651367,6.75006103515625,11.585813522338867,6.75006103515625,11.999998092651367ZM12.75006103515625,11.999998092651367C12.75006103515625,12.414182662963867,12.41424560546875,12.749998092651367,12.00006103515625,12.749998092651367C11.58575439453125,12.749998092651367,11.25006103515625,12.414182662963867,11.25006103515625,11.999998092651367C11.25006103515625,11.585813522338867,11.58575439453125,11.249998092651367,12.00006103515625,11.249998092651367C12.41424560546875,11.249998092651367,12.75006103515625,11.585813522338867,12.75006103515625,11.999998092651367ZM18.75,11.999998092651367C18.75,12.414182662963867,18.4141845703125,12.749998092651367,18,12.749998092651367C17.585693359375,12.749998092651367,17.25,12.414182662963867,17.25,11.999998092651367C17.25,11.585813522338867,17.585693359375,11.249998092651367,18,11.249998092651367C18.4141845703125,11.249998092651367,18.75,11.585813522338867,18.75,11.999998092651367Z" style="fill: none; stroke-width: 1.5; stroke: rgb(0, 0, 0); stroke-opacity: 1;"/></g></g></g></g></g></g></g></g></g></g></svg>