<svg width="24" xmlns="http://www.w3.org/2000/svg" height="24" id="screenshot-e7b61c4e-e9ad-8043-8007-bfd691e7b682" viewBox="0 0 24 24" xmlns:xlink="http://www.w3.org/1999/xlink" fill="none" version="1.1"><g id="shape-e7b61c4e-e9ad-8043-8007-bfd691e7b682"><g class="frame-container-wrapper"><g class="frame-container-blur"><g class="frame-container-shadows"><g fill="none"><g class="fills" id="fills-e7b61c4e-e9ad-8043-8007-bfd691e7b682"><rect rx="0" ry="0" x="0" y="0" width="24" height="24" transform="matrix(1.000000, 0.000000, 0.000000, 1.000000, 0.000000, 0.000000)" class="frame-background"/></g><g class="frame-children"><g id="shape-e7b61c4e-e9ad-8043-8007-bfd691e7b683" rx="0" ry="0" style="fill: rgb(0, 0, 0);"><g id="shape-e7b61c4e-e9ad-8043-8007-bfd691e7b684" style="display: none;"><g class="fills" id="fills-e7b61c4e-e9ad-8043-8007-bfd691e7b684"><rect width="24" height="24" x="0" transform="matrix(1.000000, 0.000000, 0.000000, 1.000000, 0.000000, 0.000000)" style="fill: none;" ry="0" fill="none" rx="0" y="0"/></g><g fill="none" id="strokes-5c4093ee-5bf7-80c5-8007-bfe2784c9959-e7b61c4e-e9ad-8043-8007-bfd691e7b684" class="strokes"><g class="stroke-shape"><rect rx="0" ry="0" x="0" y="0" transform="matrix(1.000000, 0.000000, 0.000000, 1.000000, 0.000000, 0.000000)" width="24" height="24" style="fill: none; stroke-width: 1.5; stroke: rgb(0, 0, 0); stroke-opacity: 1;"/></g></g></g><g id="shape-e7b61c4e-e9ad-8043-8007-bfd691e7b685"><g class="fills" id="fills-e7b61c4e-e9ad-8043-8007-bfd691e7b685"><path d="M3.97998046875,8.222900390625C3.04443359375,9.3271484375,2.3477783203125,10.61328125,1.9339599609375,12C3.22607421875,16.337890625,7.243896484375,19.5,12,19.5C12.992919921875,19.5,13.9530029296875,19.362060546875,14.863037109375,19.10498046875M6.22802734375,6.22802734375C7.940673828125,5.097900390625,9.947998046875,4.496826171875,12,4.5C16.7559814453125,4.5,20.77294921875,7.662109375,22.06494140625,11.998046875C21.35693359375,14.3671875,19.8369140625,16.41162109375,17.77197265625,17.77197265625M6.22802734375,6.22802734375L3,3M6.22802734375,6.22802734375L9.8779296875,9.8779296875M17.77197265625,17.77197265625L21,21M17.77197265625,17.77197265625L14.1220703125,14.1220703125M14.1220703125,14.1220703125C14.8798828125,13.364013671875,15.176025390625,12.25927734375,14.8984375,11.223876953125C14.62109375,10.188720703125,13.8123779296875,9.3798828125,12.777099609375,9.1025390625C11.74169921875,8.824951171875,10.636962890625,9.12109375,9.87890625,9.87890625M14.1209716796875,14.12109375L9.8800048828125,9.8798828125" fill="none" stroke-linejoin="round" style="fill: none;"/></g><g fill="none" stroke-linejoin="round" id="strokes-5c4093ee-5bf7-80c5-8007-bfe2784cc0a9-e7b61c4e-e9ad-8043-8007-bfd691e7b685" class="strokes"><g class="stroke-shape"><path d="M3.97998046875,8.222900390625C3.04443359375,9.3271484375,2.3477783203125,10.61328125,1.9339599609375,12C3.22607421875,16.337890625,7.243896484375,19.5,12,19.5C12.992919921875,19.5,13.9530029296875,19.362060546875,14.863037109375,19.10498046875M6.22802734375,6.22802734375C7.940673828125,5.097900390625,9.947998046875,4.496826171875,12,4.5C16.7559814453125,4.5,20.77294921875,7.662109375,22.06494140625,11.998046875C21.35693359375,14.3671875,19.8369140625,16.41162109375,17.77197265625,17.77197265625M6.22802734375,6.22802734375L3,3M6.22802734375,6.22802734375L9.8779296875,9.8779296875M17.77197265625,17.77197265625L21,21M17.77197265625,17.77197265625L14.1220703125,14.1220703125M14.1220703125,14.1220703125C14.8798828125,13.364013671875,15.176025390625,12.25927734375,14.8984375,11.223876953125C14.62109375,10.188720703125,13.8123779296875,9.3798828125,12.777099609375,9.1025390625C11.74169921875,8.824951171875,10.636962890625,9.12109375,9.87890625,9.87890625M14.1209716796875,14.12109375L9.8800048828125,9.8798828125" style="fill: none; stroke-width: 1.5; stroke: rgb(0, 0, 0); stroke-opacity: 1;"/></g></g></g></g></g></g></g></g></g></g></svg>