<svg width="24" xmlns="http://www.w3.org/2000/svg" height="24" id="screenshot-e7b61c4e-e9ad-8043-8007-bfd691e7b67d" viewBox="0 0 24 24" xmlns:xlink="http://www.w3.org/1999/xlink" fill="none" version="1.1"><g id="shape-e7b61c4e-e9ad-8043-8007-bfd691e7b67d"><g class="frame-container-wrapper"><g class="frame-container-blur"><g class="frame-container-shadows"><g fill="none"><g class="fills" id="fills-e7b61c4e-e9ad-8043-8007-bfd691e7b67d"><rect rx="0" ry="0" x="0" y="0" width="24" height="24" transform="matrix(1.000000, 0.000000, 0.000000, 1.000000, 0.000000, 0.000000)" class="frame-background"/></g><g class="frame-children"><g id="shape-e7b61c4e-e9ad-8043-8007-bfd691e7b67e" rx="0" ry="0" style="fill: rgb(0, 0, 0);"><g id="shape-e7b61c4e-e9ad-8043-8007-bfd691e7b67f" style="display: none;"><g class="fills" id="fills-e7b61c4e-e9ad-8043-8007-bfd691e7b67f"><rect width="24" height="24" x="0" transform="matrix(1.000000, 0.000000, 0.000000, 1.000000, 0.000000, 0.000000)" style="fill: none;" ry="0" fill="none" rx="0" y="0"/></g><g fill="none" id="strokes-5c4093ee-5bf7-80c5-8007-bfe278479882-e7b61c4e-e9ad-8043-8007-bfd691e7b67f" class="strokes"><g class="stroke-shape"><rect rx="0" ry="0" x="0" y="0" transform="matrix(1.000000, 0.000000, 0.000000, 1.000000, 0.000000, 0.000000)" width="24" height="24" style="fill: none; stroke-width: 1.5; stroke: rgb(0, 0, 0); stroke-opacity: 1;"/></g></g></g><g id="shape-e7b61c4e-e9ad-8043-8007-bfd691e7b680"><g class="fills" id="fills-e7b61c4e-e9ad-8043-8007-bfd691e7b680"><path d="M2.0360107421875,12.322021484375C1.96697998046875,12.114501953125,1.96697998046875,11.890380859375,2.0360107421875,11.68310546875C3.4229736328125,7.510009765625,7.3599853515625,4.5,12,4.5C16.6380615234375,4.5,20.572998046875,7.507080078125,21.9630126953125,11.677978515625C22.0330810546875,11.885009765625,22.0330810546875,12.10888671875,21.9630126953125,12.31689453125C20.5770263671875,16.489990234375,16.6400146484375,19.5,12,19.5C7.36199951171875,19.5,3.427001953125,16.492919921875,2.0369873046875,12.322021484375Z" fill="none" stroke-linejoin="round" style="fill: none;"/></g><g fill="none" stroke-linejoin="round" id="strokes-5c4093ee-5bf7-80c5-8007-bfe278480985-e7b61c4e-e9ad-8043-8007-bfd691e7b680" class="strokes"><g class="stroke-shape"><path d="M2.0360107421875,12.322021484375C1.96697998046875,12.114501953125,1.96697998046875,11.890380859375,2.0360107421875,11.68310546875C3.4229736328125,7.510009765625,7.3599853515625,4.5,12,4.5C16.6380615234375,4.5,20.572998046875,7.507080078125,21.9630126953125,11.677978515625C22.0330810546875,11.885009765625,22.0330810546875,12.10888671875,21.9630126953125,12.31689453125C20.5770263671875,16.489990234375,16.6400146484375,19.5,12,19.5C7.36199951171875,19.5,3.427001953125,16.492919921875,2.0369873046875,12.322021484375Z" style="fill: none; stroke-width: 1.5; stroke: rgb(0, 0, 0); stroke-opacity: 1;"/></g></g></g><g id="shape-e7b61c4e-e9ad-8043-8007-bfd691e7b681"><g class="fills" id="fills-e7b61c4e-e9ad-8043-8007-bfd691e7b681"><path d="M15,12C15,13.65673828125,13.6568603515625,15,12,15C10.3431396484375,15,9,13.65673828125,9,12C9,10.34326171875,10.3431396484375,9,12,9C13.6568603515625,9,15,10.34326171875,15,12Z" fill="none" stroke-linejoin="round" style="fill: none;"/></g><g fill="none" stroke-linejoin="round" id="strokes-5c4093ee-5bf7-80c5-8007-bfe2784868a7-e7b61c4e-e9ad-8043-8007-bfd691e7b681" class="strokes"><g class="stroke-shape"><path d="M15,12C15,13.65673828125,13.6568603515625,15,12,15C10.3431396484375,15,9,13.65673828125,9,12C9,10.34326171875,10.3431396484375,9,12,9C13.6568603515625,9,15,10.34326171875,15,12Z" style="fill: none; stroke-width: 1.5; stroke: rgb(0, 0, 0); stroke-opacity: 1;"/></g></g></g></g></g></g></g></g></g></g></svg>