<svg width="24" xmlns="http://www.w3.org/2000/svg" height="24" id="screenshot-e7b61c4e-e9ad-8043-8007-bc3c7eb06b7c" viewBox="0 0 24 24" xmlns:xlink="http://www.w3.org/1999/xlink" fill="none" version="1.1"><g id="shape-e7b61c4e-e9ad-8043-8007-bc3c7eb06b7c"><g class="frame-container-wrapper"><g class="frame-container-blur"><g class="frame-container-shadows"><g fill="none"><g class="fills" id="fills-e7b61c4e-e9ad-8043-8007-bc3c7eb06b7c"><rect rx="0" ry="0" x="0" y="0" width="24" height="24" transform="matrix(1.000000, 0.000000, 0.000000, 1.000000, 0.000000, 0.000000)" class="frame-background"/></g><g class="frame-children"><g id="shape-e7b61c4e-e9ad-8043-8007-bc3c7eb06b7d" rx="0" ry="0" style="fill: rgb(0, 0, 0);"><g id="shape-e7b61c4e-e9ad-8043-8007-bc3c7eb06b7e" style="display: none;"><g class="fills" id="fills-e7b61c4e-e9ad-8043-8007-bc3c7eb06b7e"><rect width="24" height="24" x="0" transform="matrix(1.000000, 0.000000, 0.000000, 1.000000, 0.000000, 0.000000)" style="fill: none;" ry="0" fill="none" rx="0" y="0"/></g><g fill="none" id="strokes-5c4093ee-5bf7-80c5-8007-bfe2784a62b2-e7b61c4e-e9ad-8043-8007-bc3c7eb06b7e" class="strokes"><g class="stroke-shape"><rect rx="0" ry="0" x="0" y="0" transform="matrix(1.000000, 0.000000, 0.000000, 1.000000, 0.000000, 0.000000)" width="24" height="24" style="fill: none; stroke-width: 1.5; stroke: rgb(0, 0, 0); stroke-opacity: 1;"/></g></g></g><g id="shape-e7b61c4e-e9ad-8043-8007-bc3c7eb06b7f"><g class="fills" id="fills-e7b61c4e-e9ad-8043-8007-bc3c7eb06b7f"><path d="M10.5,9.5C10.5,8.67138671875,9.828369140625,8,9,8C8.1715087890625,8,7.5,8.67138671875,7.5,9.5C7.5,10.32861328125,8.1715087890625,11,9,11C9.828369140625,11,10.5,10.32861328125,10.5,9.5L20.25,9.5M3.75,9.5L7.5,9.5M16.5,15.5C16.5,14.67138671875,15.828369140625,14,15,14C14.1715087890625,14,13.5,14.67138671875,13.5,15.5C13.5,16.32861328125,14.1715087890625,17,15,17C15.828369140625,17,16.5,16.32861328125,16.5,15.5L20.25,15.5M3.75,15.5L13.5,15.5" fill="none" stroke-linejoin="round" style="fill: none;"/></g><g fill="none" stroke-linejoin="round" id="strokes-5c4093ee-5bf7-80c5-8007-bfe2784aabd9-e7b61c4e-e9ad-8043-8007-bc3c7eb06b7f" class="strokes"><g class="stroke-shape"><path d="M10.5,9.5C10.5,8.67138671875,9.828369140625,8,9,8C8.1715087890625,8,7.5,8.67138671875,7.5,9.5C7.5,10.32861328125,8.1715087890625,11,9,11C9.828369140625,11,10.5,10.32861328125,10.5,9.5L20.25,9.5M3.75,9.5L7.5,9.5M16.5,15.5C16.5,14.67138671875,15.828369140625,14,15,14C14.1715087890625,14,13.5,14.67138671875,13.5,15.5C13.5,16.32861328125,14.1715087890625,17,15,17C15.828369140625,17,16.5,16.32861328125,16.5,15.5L20.25,15.5M3.75,15.5L13.5,15.5" style="fill: none; stroke-width: 1.5; stroke: rgb(0, 0, 0); stroke-opacity: 1; stroke-linecap: round;"/></g></g></g></g></g></g></g></g></g></g></svg>