<svg width="24" xmlns="http://www.w3.org/2000/svg" height="24" id="screenshot-c53ee40d-559c-809e-8007-bfddb31369e9" viewBox="0 0 24 24" xmlns:xlink="http://www.w3.org/1999/xlink" fill="none" version="1.1"><g id="shape-c53ee40d-559c-809e-8007-bfddb31369e9"><g class="frame-container-wrapper"><g class="frame-container-blur"><g class="frame-container-shadows"><g fill="none"><g class="fills" id="fills-c53ee40d-559c-809e-8007-bfddb31369e9"><rect rx="0" ry="0" x="0" y="0" width="24" height="24" transform="matrix(1.000000, 0.000000, 0.000000, 1.000000, 0.000000, 0.000000)" class="frame-background"/></g><g class="frame-children"><g id="shape-c53ee40d-559c-809e-8007-bfddb31369ea" rx="0" ry="0" style="fill: rgb(0, 0, 0);"><g id="shape-c53ee40d-559c-809e-8007-bfddb31369eb" style="display: none;"><g class="fills" id="fills-c53ee40d-559c-809e-8007-bfddb31369eb"><rect width="24" height="24" x="0" transform="matrix(1.000000, 0.000000, 0.000000, 1.000000, 0.000000, 0.000000)" style="fill: none;" ry="0" fill="none" rx="0" y="0"/></g><g fill="none" id="strokes-964b16e3-69f3-805d-8007-c003c4ab92b0-c53ee40d-559c-809e-8007-bfddb31369eb" class="strokes"><g class="stroke-shape"><rect rx="0" ry="0" x="0" y="0" transform="matrix(1.000000, 0.000000, 0.000000, 1.000000, 0.000000, 0.000000)" width="24" height="24" style="fill: none; stroke-width: 1.5; stroke: rgb(0, 0, 0); stroke-opacity: 1;"/></g></g></g><g id="shape-c53ee40d-559c-809e-8007-bfddb31369ec"><g class="fills" id="fills-c53ee40d-559c-809e-8007-bfddb31369ec"><path d="M3,3L3,4.5M3,21L3,15M3,15L5.76995849609375,14.306884765625C7.8543701171875,13.7861328125,10.056396484375,14.028076171875,11.97796630859375,14.989013671875L12.08599853515625,15.04296875C13.96917724609375,15.984130859375,16.12274169921875,16.2353515625,18.1719970703125,15.7529296875L21.2860107421875,15.02099609375C20.90460205078125,11.53173828125,20.90289306640625,8.011474609375,21.281005859375,4.52197265625L18.17095947265625,5.25390625C16.12188720703125,5.73583984375,13.96875,5.484375,12.08599853515625,4.54296875L11.97796630859375,4.489013671875C10.056396484375,3.528076171875,7.8543701171875,3.2861328125,5.76995849609375,3.806884765625L3,4.5M3,15L3,4.5" fill="none" stroke-linejoin="round" style="fill: none;"/></g><g fill="none" stroke-linejoin="round" id="strokes-964b16e3-69f3-805d-8007-c003c4ac9a0d-c53ee40d-559c-809e-8007-bfddb31369ec" class="strokes"><g class="stroke-shape"><path d="M3,3L3,4.5M3,21L3,15M3,15L5.76995849609375,14.306884765625C7.8543701171875,13.7861328125,10.056396484375,14.028076171875,11.97796630859375,14.989013671875L12.08599853515625,15.04296875C13.96917724609375,15.984130859375,16.12274169921875,16.2353515625,18.1719970703125,15.7529296875L21.2860107421875,15.02099609375C20.90460205078125,11.53173828125,20.90289306640625,8.011474609375,21.281005859375,4.52197265625L18.17095947265625,5.25390625C16.12188720703125,5.73583984375,13.96875,5.484375,12.08599853515625,4.54296875L11.97796630859375,4.489013671875C10.056396484375,3.528076171875,7.8543701171875,3.2861328125,5.76995849609375,3.806884765625L3,4.5M3,15L3,4.5" style="fill: none; stroke-width: 1.5; stroke: rgb(0, 0, 0); stroke-opacity: 1; stroke-linecap: round;"/></g></g></g></g></g></g></g></g></g></g></svg>