<svg width="24" xmlns="http://www.w3.org/2000/svg" height="24" id="screenshot-c53ee40d-559c-809e-8007-bfddd4427f5f" viewBox="0 0 24 24" xmlns:xlink="http://www.w3.org/1999/xlink" fill="none" version="1.1"><g id="shape-c53ee40d-559c-809e-8007-bfddd4427f5f"><g class="frame-container-wrapper"><g class="frame-container-blur"><g class="frame-container-shadows"><g fill="none"><g class="fills" id="fills-c53ee40d-559c-809e-8007-bfddd4427f5f"><rect rx="0" ry="0" x="0" y="0" width="24" height="24" transform="matrix(1.000000, 0.000000, 0.000000, 1.000000, 0.000000, 0.000000)" class="frame-background"/></g><g class="frame-children"><g id="shape-c53ee40d-559c-809e-8007-bfddd4427f60" rx="0" ry="0" style="fill: rgb(0, 0, 0);"><g id="shape-c53ee40d-559c-809e-8007-bfddd4427f61" style="display: none;"><g class="fills" id="fills-c53ee40d-559c-809e-8007-bfddd4427f61"><rect width="24" height="24" x="0" transform="matrix(1.000000, 0.000000, 0.000000, 1.000000, 0.000000, 0.000000)" style="fill: none;" ry="0" fill="none" rx="0" y="0"/></g><g fill="none" id="strokes-5c4093ee-5bf7-80c5-8007-bfe27869e284-c53ee40d-559c-809e-8007-bfddd4427f61" class="strokes"><g class="stroke-shape"><rect rx="0" ry="0" x="0" y="0" transform="matrix(1.000000, 0.000000, 0.000000, 1.000000, 0.000000, 0.000000)" width="24" height="24" style="fill: none; stroke-width: 1.5; stroke: rgb(0, 0, 0); stroke-opacity: 1;"/></g></g></g><g id="shape-c53ee40d-559c-809e-8007-bfddd4427f62"><g class="fills" id="fills-c53ee40d-559c-809e-8007-bfddd4427f62"><path d="M13.05999755859375,6.31005859375L10.94000244140625,4.18994140625C10.65869140625,3.908447265625,10.27703857421875,3.75,9.87896728515625,3.75L4.5,3.75C3.90325927734375,3.75,3.3309326171875,3.987060546875,2.90899658203125,4.408935546875C2.487060546875,4.8310546875,2.25,5.4033203125,2.25,6L2.25,18C2.25,19.24267578125,3.25732421875,20.25,4.5,20.25L19.5,20.25C20.74261474609375,20.25,21.75,19.24267578125,21.75,18L21.75,9C21.75,7.75732421875,20.74261474609375,6.75,19.5,6.75L14.1209716796875,6.75C13.72332763671875,6.749755859375,13.342041015625,6.59130859375,13.06097412109375,6.31005859375L13.05999755859375,6.31005859375" fill="none" stroke-linejoin="round" style="fill: none;"/></g><g fill="none" stroke-linejoin="round" id="strokes-5c4093ee-5bf7-80c5-8007-bfe2786a0402-c53ee40d-559c-809e-8007-bfddd4427f62" class="strokes"><g class="stroke-shape"><path d="M13.05999755859375,6.31005859375L10.94000244140625,4.18994140625C10.65869140625,3.908447265625,10.27703857421875,3.75,9.87896728515625,3.75L4.5,3.75C3.90325927734375,3.75,3.3309326171875,3.987060546875,2.90899658203125,4.408935546875C2.487060546875,4.8310546875,2.25,5.4033203125,2.25,6L2.25,18C2.25,19.24267578125,3.25732421875,20.25,4.5,20.25L19.5,20.25C20.74261474609375,20.25,21.75,19.24267578125,21.75,18L21.75,9C21.75,7.75732421875,20.74261474609375,6.75,19.5,6.75L14.1209716796875,6.75C13.72332763671875,6.749755859375,13.342041015625,6.59130859375,13.06097412109375,6.31005859375L13.05999755859375,6.31005859375" style="fill: none; stroke-width: 1.5; stroke: rgb(0, 0, 0); stroke-opacity: 1;"/></g></g></g></g></g></g></g></g></g></g></svg>