<svg width="24" xmlns="http://www.w3.org/2000/svg" height="24" id="screenshot-e7b61c4e-e9ad-8043-8007-bc3c7eb06bac" viewBox="0 0 24 24" xmlns:xlink="http://www.w3.org/1999/xlink" fill="none" version="1.1"><g id="shape-e7b61c4e-e9ad-8043-8007-bc3c7eb06bac"><g class="frame-container-wrapper"><g class="frame-container-blur"><g class="frame-container-shadows"><g fill="none"><g class="fills" id="fills-e7b61c4e-e9ad-8043-8007-bc3c7eb06bac"><rect rx="0" ry="0" x="0" y="0" width="24" height="24" transform="matrix(1.000000, 0.000000, 0.000000, 1.000000, 0.000000, 0.000000)" class="frame-background"/></g><g class="frame-children"><g id="shape-e7b61c4e-e9ad-8043-8007-bc3c7eb06bad" rx="0" ry="0" style="fill: rgb(0, 0, 0);"><g id="shape-e7b61c4e-e9ad-8043-8007-bc3c7eb06bae" style="display: none;"><g class="fills" id="fills-e7b61c4e-e9ad-8043-8007-bc3c7eb06bae"><rect width="24" height="24" x="0" transform="matrix(1.000000, 0.000000, 0.000000, 1.000000, 0.000000, 0.000000)" style="fill: none;" ry="0" fill="none" rx="0" y="0"/></g><g fill="none" id="strokes-5c4093ee-5bf7-80c5-8007-bfe278578821-e7b61c4e-e9ad-8043-8007-bc3c7eb06bae" class="strokes"><g class="stroke-shape"><rect rx="0" ry="0" x="0" y="0" transform="matrix(1.000000, 0.000000, 0.000000, 1.000000, 0.000000, 0.000000)" width="24" height="24" style="fill: none; stroke-width: 1.5; stroke: rgb(0, 0, 0); stroke-opacity: 1;"/></g></g></g><g id="shape-e7b61c4e-e9ad-8043-8007-bc3c7eb06baf"><g class="fills" id="fills-e7b61c4e-e9ad-8043-8007-bc3c7eb06baf"><path d="M21,8.25C21,5.7650146484375,18.9010009765625,3.75,16.31201171875,3.75C14.376953125,3.75,12.7149658203125,4.8759765625,12,6.48297119140625C11.2850341796875,4.8759765625,9.6229248046875,3.75,7.68701171875,3.75C5.0999755859375,3.75,3,5.7650146484375,3,8.25C3,15.469970703125,12,20.25,12,20.25C12,20.25,21,15.469970703125,21,8.25Z" fill="none" stroke-linejoin="round" style="fill: none;"/></g><g fill="none" stroke-linejoin="round" id="strokes-5c4093ee-5bf7-80c5-8007-bfe27857c694-e7b61c4e-e9ad-8043-8007-bc3c7eb06baf" class="strokes"><g class="stroke-shape"><path d="M21,8.25C21,5.7650146484375,18.9010009765625,3.75,16.31201171875,3.75C14.376953125,3.75,12.7149658203125,4.8759765625,12,6.48297119140625C11.2850341796875,4.8759765625,9.6229248046875,3.75,7.68701171875,3.75C5.0999755859375,3.75,3,5.7650146484375,3,8.25C3,15.469970703125,12,20.25,12,20.25C12,20.25,21,15.469970703125,21,8.25Z" style="fill: none; stroke-width: 1.5; stroke: rgb(0, 0, 0); stroke-opacity: 1;"/></g></g></g></g></g></g></g></g></g></g></svg>