<svg width="24" xmlns="http://www.w3.org/2000/svg" height="24" id="screenshot-e7b61c4e-e9ad-8043-8007-bc3c7eb06bb0" viewBox="0 0 24 24" xmlns:xlink="http://www.w3.org/1999/xlink" fill="none" version="1.1"><g id="shape-e7b61c4e-e9ad-8043-8007-bc3c7eb06bb0"><g class="frame-container-wrapper"><g class="frame-container-blur"><g class="frame-container-shadows"><g fill="none"><g class="fills" id="fills-e7b61c4e-e9ad-8043-8007-bc3c7eb06bb0"><rect rx="0" ry="0" x="0" y="0" width="24" height="24" transform="matrix(1.000000, 0.000000, 0.000000, 1.000000, 0.000000, 0.000000)" class="frame-background"/></g><g class="frame-children"><g id="shape-e7b61c4e-e9ad-8043-8007-bc3c7eb06bb1" rx="0" ry="0" style="fill: rgb(0, 0, 0);"><g id="shape-e7b61c4e-e9ad-8043-8007-bc3c7eb06bb2" style="display: none;"><g class="fills" id="fills-e7b61c4e-e9ad-8043-8007-bc3c7eb06bb2"><rect width="24" height="24" x="0" transform="matrix(1.000000, 0.000000, 0.000000, 1.000000, 0.000000, 0.000000)" style="fill: none;" ry="0" fill="none" rx="0" y="0"/></g><g fill="none" id="strokes-5c4093ee-5bf7-80c5-8007-bfe27846737b-e7b61c4e-e9ad-8043-8007-bc3c7eb06bb2" class="strokes"><g class="stroke-shape"><rect rx="0" ry="0" x="0" y="0" transform="matrix(1.000000, 0.000000, 0.000000, 1.000000, 0.000000, 0.000000)" width="24" height="24" style="fill: none; stroke-width: 1.5; stroke: rgb(0, 0, 0); stroke-opacity: 1;"/></g></g></g><g id="shape-e7b61c4e-e9ad-8043-8007-bc3c7eb06bb3"><g class="fills" id="fills-e7b61c4e-e9ad-8043-8007-bc3c7eb06bb3"><path d="M19.5,9.750015258789062L19.5,19.875015258789062C19.5,20.496109008789062,18.9959716796875,21.000015258789062,18.375,21.000015258789062L14.25,21.000015258789062L14.25,16.125015258789062C14.25,15.503921508789062,13.7459716796875,15.000015258789062,13.125,15.000015258789062L10.875,15.000015258789062C10.2540283203125,15.000015258789062,9.75,15.503921508789062,9.75,16.125015258789062L9.75,21.000015258789062L5.625,21.000015258789062C5.0040283203125,21.000015258789062,4.5,20.496109008789062,4.5,19.875015258789062L4.5,9.750015258789062L11.2039794921875,3.0449371337890625C11.6439208984375,2.6059722900390625,12.35595703125,2.6059722900390625,12.794921875,3.0449371337890625L19.3455810546875,9.5955810546875M8.25,21.000015258789062L16.5,21.000015258789062" fill="none" stroke-linejoin="round" style="fill: none;"/></g><g fill="none" stroke-linejoin="round" id="strokes-5c4093ee-5bf7-80c5-8007-bfe27846a4b4-e7b61c4e-e9ad-8043-8007-bc3c7eb06bb3" class="strokes"><g class="stroke-shape"><path d="M19.5,9.750015258789062L19.5,19.875015258789062C19.5,20.496109008789062,18.9959716796875,21.000015258789062,18.375,21.000015258789062L14.25,21.000015258789062L14.25,16.125015258789062C14.25,15.503921508789062,13.7459716796875,15.000015258789062,13.125,15.000015258789062L10.875,15.000015258789062C10.2540283203125,15.000015258789062,9.75,15.503921508789062,9.75,16.125015258789062L9.75,21.000015258789062L5.625,21.000015258789062C5.0040283203125,21.000015258789062,4.5,20.496109008789062,4.5,19.875015258789062L4.5,9.750015258789062L11.2039794921875,3.0449371337890625C11.6439208984375,2.6059722900390625,12.35595703125,2.6059722900390625,12.794921875,3.0449371337890625L19.3455810546875,9.5955810546875M8.25,21.000015258789062L16.5,21.000015258789062" style="fill: none; stroke-width: 1.5; stroke: rgb(0, 0, 0); stroke-opacity: 1; stroke-linecap: round;"/></g></g></g></g></g></g></g></g></g></g></svg>