<svg width="24" xmlns="http://www.w3.org/2000/svg" height="24" id="screenshot-e7b61c4e-e9ad-8043-8007-bc3c7eb06ba4" viewBox="0 0 24 24" xmlns:xlink="http://www.w3.org/1999/xlink" fill="none" version="1.1"><g id="shape-e7b61c4e-e9ad-8043-8007-bc3c7eb06ba4"><g class="frame-container-wrapper"><g class="frame-container-blur"><g class="frame-container-shadows"><g fill="none"><g class="fills" id="fills-e7b61c4e-e9ad-8043-8007-bc3c7eb06ba4"><rect rx="0" ry="0" x="0" y="0" width="24" height="24" transform="matrix(1.000000, 0.000000, 0.000000, 1.000000, 0.000000, 0.000000)" class="frame-background"/></g><g class="frame-children"><g id="shape-e7b61c4e-e9ad-8043-8007-bc3c7eb06ba5" rx="0" ry="0" style="fill: rgb(0, 0, 0);"><g id="shape-e7b61c4e-e9ad-8043-8007-bc3c7eb06ba6" style="display: none;"><g class="fills" id="fills-e7b61c4e-e9ad-8043-8007-bc3c7eb06ba6"><rect width="24" height="24" x="0" transform="matrix(1.000000, 0.000000, 0.000000, 1.000000, 0.000000, 0.000000)" style="fill: none;" ry="0" fill="none" rx="0" y="0"/></g><g fill="none" id="strokes-5c4093ee-5bf7-80c5-8007-bfe2785c603f-e7b61c4e-e9ad-8043-8007-bc3c7eb06ba6" class="strokes"><g class="stroke-shape"><rect rx="0" ry="0" x="0" y="0" transform="matrix(1.000000, 0.000000, 0.000000, 1.000000, 0.000000, 0.000000)" width="24" height="24" style="fill: none; stroke-width: 1.5; stroke: rgb(0, 0, 0); stroke-opacity: 1;"/></g></g></g><g id="shape-e7b61c4e-e9ad-8043-8007-bc3c7eb06ba7"><g class="fills" id="fills-e7b61c4e-e9ad-8043-8007-bc3c7eb06ba7"><path d="M12,10.999985694885254L12,13.999985694885254C12,13.999985694885254,12,14.999985694885254,12,15.999985694885254L12,15.999985694885254M21,11.999985694885254C21,16.97068977355957,16.9705810546875,20.99998664855957,12,20.99998664855957C7.0294189453125,20.99998664855957,3,16.97068977355957,3,11.999985694885254C3,7.029283046722412,7.0294189453125,2.999986171722412,12,2.999986171722412C16.9705810546875,2.999986171722412,21,7.029283046722412,21,11.999985694885254L21,11.999985694885254M12,8.249985694885254L12.0079345703125,8.249985694885254L12.0079345703125,8.257798194885254L12,8.257798194885254L12,8.249985694885254L12,8.249985694885254" fill="none" stroke-linejoin="round" style="fill: none;"/></g><g fill="none" stroke-linejoin="round" id="strokes-5c4093ee-5bf7-80c5-8007-bfe2785c8b59-e7b61c4e-e9ad-8043-8007-bc3c7eb06ba7" class="strokes"><g class="stroke-shape"><path d="M12,10.999985694885254L12,13.999985694885254C12,13.999985694885254,12,14.999985694885254,12,15.999985694885254L12,15.999985694885254M21,11.999985694885254C21,16.97068977355957,16.9705810546875,20.99998664855957,12,20.99998664855957C7.0294189453125,20.99998664855957,3,16.97068977355957,3,11.999985694885254C3,7.029283046722412,7.0294189453125,2.999986171722412,12,2.999986171722412C16.9705810546875,2.999986171722412,21,7.029283046722412,21,11.999985694885254L21,11.999985694885254M12,8.249985694885254L12.0079345703125,8.249985694885254L12.0079345703125,8.257798194885254L12,8.257798194885254L12,8.249985694885254L12,8.249985694885254" style="fill: none; stroke-width: 1.5; stroke: rgb(0, 0, 0); stroke-opacity: 1; stroke-linecap: round;"/></g></g></g></g></g></g></g></g></g></g></svg>