<svg width="24" xmlns="http://www.w3.org/2000/svg" height="24" id="screenshot-c53ee40d-559c-809e-8007-bfdfc7df3d12" viewBox="0 0 24 24" xmlns:xlink="http://www.w3.org/1999/xlink" fill="none" version="1.1"><g id="shape-c53ee40d-559c-809e-8007-bfdfc7df3d12"><g class="frame-container-wrapper"><g class="frame-container-blur"><g class="frame-container-shadows"><g fill="none"><g class="fills" id="fills-c53ee40d-559c-809e-8007-bfdfc7df3d12"><rect rx="0" ry="0" x="0" y="0" width="24" height="24" transform="matrix(1.000000, 0.000000, 0.000000, 1.000000, 0.000000, 0.000000)" class="frame-background"/></g><g class="frame-children"><g id="shape-c53ee40d-559c-809e-8007-bfdfc7df3d13" rx="0" ry="0" style="fill: rgb(0, 0, 0);"><g id="shape-c53ee40d-559c-809e-8007-bfdfc7df3d14" style="display: none;"><g class="fills" id="fills-c53ee40d-559c-809e-8007-bfdfc7df3d14"><rect width="24" height="24" x="0" transform="matrix(1.000000, 0.000000, 0.000000, 1.000000, 0.000000, 0.000000)" style="fill: none;" ry="0" fill="none" rx="0" y="0"/></g><g fill="none" id="strokes-5c4093ee-5bf7-80c5-8007-bfe2784ee4b8-c53ee40d-559c-809e-8007-bfdfc7df3d14" class="strokes"><g class="stroke-shape"><rect rx="0" ry="0" x="0" y="0" transform="matrix(1.000000, 0.000000, 0.000000, 1.000000, 0.000000, 0.000000)" width="24" height="24" style="fill: none; stroke-width: 1.5; stroke: rgb(0, 0, 0); stroke-opacity: 1;"/></g></g></g><g id="shape-c53ee40d-559c-809e-8007-bfdfc7df3d15"><g class="fills" id="fills-c53ee40d-559c-809e-8007-bfdfc7df3d15"><path d="M13.1900634765625,8.68798828125C14.5086669921875,9.317626953125,15.4395751953125,10.5482177734375,15.6864013671875,11.9884033203125C15.933349609375,13.4287109375,15.4656982421875,14.899169921875,14.4320068359375,15.9320068359375L9.9320068359375,20.4320068359375C8.1746826171875,22.1893310546875,5.325439453125,22.1893310546875,3.5679931640625,20.4320068359375C1.8106689453125,18.6746826171875,1.8106689453125,15.8253173828125,3.5679931640625,14.0679931640625L5.3250732421875,12.31103515625M18.675048828125,11.68896484375L20.4320068359375,9.9320068359375C22.189453125,8.1746826171875,22.189453125,5.3253173828125,20.4320068359375,3.5679931640625C18.6746826171875,1.8106689453125,15.825439453125,1.8106689453125,14.0679931640625,3.5679931640625L9.5679931640625,8.0679931640625C8.534423828125,9.100830078125,8.066650390625,10.5712890625,8.3135986328125,12.0115966796875C8.560546875,13.4517822265625,9.4913330078125,14.682373046875,10.81005859375,15.31201171875" fill="none" stroke-linejoin="round" style="fill: none;"/></g><g fill="none" stroke-linejoin="round" id="strokes-5c4093ee-5bf7-80c5-8007-bfe2784f1a5b-c53ee40d-559c-809e-8007-bfdfc7df3d15" class="strokes"><g class="stroke-shape"><path d="M13.1900634765625,8.68798828125C14.5086669921875,9.317626953125,15.4395751953125,10.5482177734375,15.6864013671875,11.9884033203125C15.933349609375,13.4287109375,15.4656982421875,14.899169921875,14.4320068359375,15.9320068359375L9.9320068359375,20.4320068359375C8.1746826171875,22.1893310546875,5.325439453125,22.1893310546875,3.5679931640625,20.4320068359375C1.8106689453125,18.6746826171875,1.8106689453125,15.8253173828125,3.5679931640625,14.0679931640625L5.3250732421875,12.31103515625M18.675048828125,11.68896484375L20.4320068359375,9.9320068359375C22.189453125,8.1746826171875,22.189453125,5.3253173828125,20.4320068359375,3.5679931640625C18.6746826171875,1.8106689453125,15.825439453125,1.8106689453125,14.0679931640625,3.5679931640625L9.5679931640625,8.0679931640625C8.534423828125,9.100830078125,8.066650390625,10.5712890625,8.3135986328125,12.0115966796875C8.560546875,13.4517822265625,9.4913330078125,14.682373046875,10.81005859375,15.31201171875" style="fill: none; stroke-width: 1.5; stroke: rgb(0, 0, 0); stroke-opacity: 1; stroke-linecap: round;"/></g></g></g></g></g></g></g></g></g></g></svg>