<svg width="24" xmlns="http://www.w3.org/2000/svg" height="24" id="screenshot-c53ee40d-559c-809e-8007-bfde59f5a93f" viewBox="0 0 24 24" xmlns:xlink="http://www.w3.org/1999/xlink" fill="none" version="1.1"><g id="shape-c53ee40d-559c-809e-8007-bfde59f5a93f"><g class="frame-container-wrapper"><g class="frame-container-blur"><g class="frame-container-shadows"><g fill="none"><g class="fills" id="fills-c53ee40d-559c-809e-8007-bfde59f5a93f"><rect rx="0" ry="0" x="0" y="0" width="24" height="24" transform="matrix(1.000000, 0.000000, 0.000000, 1.000000, 0.000000, 0.000000)" class="frame-background"/></g><g class="frame-children"><g id="shape-c53ee40d-559c-809e-8007-bfde59f5a940" rx="0" ry="0" style="fill: rgb(0, 0, 0);"><g id="shape-c53ee40d-559c-809e-8007-bfde59f5a941" style="display: none;"><g class="fills" id="fills-c53ee40d-559c-809e-8007-bfde59f5a941"><rect width="24" height="24" x="0" transform="matrix(1.000000, 0.000000, 0.000000, 1.000000, 0.000000, 0.000000)" style="fill: none;" ry="0" fill="none" rx="0" y="0"/></g><g fill="none" id="strokes-5c4093ee-5bf7-80c5-8007-bfe278585157-c53ee40d-559c-809e-8007-bfde59f5a941" class="strokes"><g class="stroke-shape"><rect rx="0" ry="0" x="0" y="0" transform="matrix(1.000000, 0.000000, 0.000000, 1.000000, 0.000000, 0.000000)" width="24" height="24" style="fill: none; stroke-width: 1.5; stroke: rgb(0, 0, 0); stroke-opacity: 1;"/></g></g></g><g id="shape-c53ee40d-559c-809e-8007-bfde59f5a942"><g class="fills" id="fills-c53ee40d-559c-809e-8007-bfde59f5a942"><path d="M6,8L6,16M5.25,20.25L18.75,20.25C19.99261474609375,20.25,21,19.242645263671875,21,18L21,6C21,4.757354736328125,19.99261474609375,3.75,18.75,3.75L5.25,3.75C4.00732421875,3.75,3,4.757354736328125,3,6L3,18C3,19.242645263671875,4.00732421875,20.25,5.25,20.25L5.25,20.25" fill="none" stroke-linejoin="round" style="fill: none;"/></g><g fill="none" stroke-linejoin="round" id="strokes-5c4093ee-5bf7-80c5-8007-bfe27858b06c-c53ee40d-559c-809e-8007-bfde59f5a942" class="strokes"><g class="stroke-shape"><path d="M6,8L6,16M5.25,20.25L18.75,20.25C19.99261474609375,20.25,21,19.242645263671875,21,18L21,6C21,4.757354736328125,19.99261474609375,3.75,18.75,3.75L5.25,3.75C4.00732421875,3.75,3,4.757354736328125,3,6L3,18C3,19.242645263671875,4.00732421875,20.25,5.25,20.25L5.25,20.25" style="fill: none; stroke-width: 1.5; stroke: rgb(0, 0, 0); stroke-opacity: 1; stroke-linecap: round;"/></g></g></g></g></g></g></g></g></g></g></svg>