<svg width="24" xmlns="http://www.w3.org/2000/svg" height="24" id="screenshot-e7b61c4e-e9ad-8043-8007-bc3c7eb06bc4" viewBox="0 0 24 24" xmlns:xlink="http://www.w3.org/1999/xlink" fill="none" version="1.1"><g id="shape-e7b61c4e-e9ad-8043-8007-bc3c7eb06bc4"><g class="frame-container-wrapper"><g class="frame-container-blur"><g class="frame-container-shadows"><g fill="none"><g class="fills" id="fills-e7b61c4e-e9ad-8043-8007-bc3c7eb06bc4"><rect rx="0" ry="0" x="0" y="0" width="24" height="24" transform="matrix(1.000000, 0.000000, 0.000000, 1.000000, 0.000000, 0.000000)" class="frame-background"/></g><g class="frame-children"><g id="shape-e7b61c4e-e9ad-8043-8007-bc3c7eb06bc5" rx="0" ry="0" style="fill: rgb(0, 0, 0);"><g id="shape-e7b61c4e-e9ad-8043-8007-bc3c7eb06bc6" style="display: none;"><g class="fills" id="fills-e7b61c4e-e9ad-8043-8007-bc3c7eb06bc6"><rect width="24" height="24" x="0" transform="matrix(1.000000, 0.000000, 0.000000, 1.000000, 0.000000, 0.000000)" style="fill: none;" ry="0" fill="none" rx="0" y="0"/></g><g fill="none" id="strokes-5c4093ee-5bf7-80c5-8007-bfe27855c4d2-e7b61c4e-e9ad-8043-8007-bc3c7eb06bc6" class="strokes"><g class="stroke-shape"><rect rx="0" ry="0" x="0" y="0" transform="matrix(1.000000, 0.000000, 0.000000, 1.000000, 0.000000, 0.000000)" width="24" height="24" style="fill: none; stroke-width: 1.5; stroke: rgb(0, 0, 0); stroke-opacity: 1;"/></g></g></g><g id="shape-e7b61c4e-e9ad-8043-8007-bc3c7eb06bc7"><g class="fills" id="fills-e7b61c4e-e9ad-8043-8007-bc3c7eb06bc7"><path d="M12,18.75C15.313720703125,18.75,18,16.063720703125,18,12.75L18,11.25M12,18.75C8.686279296875,18.75,6,16.063720703125,6,12.75L6,11.25M12,18.75L12,22.5M8.25,22.5L15.75,22.5M12,15.75C10.3431396484375,15.75,9,14.4068603515625,9,12.75L9,4.5C9,2.8431396484375,10.3431396484375,1.5,12,1.5C13.6568603515625,1.5,15,2.8431396484375,15,4.5L15,12.75C15,14.4068603515625,13.6568603515625,15.75,12,15.75Z" fill="none" stroke-linejoin="round" style="fill: none;"/></g><g fill="none" stroke-linejoin="round" id="strokes-5c4093ee-5bf7-80c5-8007-bfe278567cfe-e7b61c4e-e9ad-8043-8007-bc3c7eb06bc7" class="strokes"><g class="stroke-shape"><path d="M12,18.75C15.313720703125,18.75,18,16.063720703125,18,12.75L18,11.25M12,18.75C8.686279296875,18.75,6,16.063720703125,6,12.75L6,11.25M12,18.75L12,22.5M8.25,22.5L15.75,22.5M12,15.75C10.3431396484375,15.75,9,14.4068603515625,9,12.75L9,4.5C9,2.8431396484375,10.3431396484375,1.5,12,1.5C13.6568603515625,1.5,15,2.8431396484375,15,4.5L15,12.75C15,14.4068603515625,13.6568603515625,15.75,12,15.75Z" style="fill: none; stroke-width: 1.5; stroke: rgb(0, 0, 0); stroke-opacity: 1; stroke-linecap: round;"/></g></g></g></g></g></g></g></g></g></g></svg>