<svg width="24" xmlns="http://www.w3.org/2000/svg" height="24" id="screenshot-c53ee40d-559c-809e-8007-bfd8bbff0c05" viewBox="0 0 24 24" xmlns:xlink="http://www.w3.org/1999/xlink" fill="none" version="1.1"><g id="shape-c53ee40d-559c-809e-8007-bfd8bbff0c05"><g class="frame-container-wrapper"><g class="frame-container-blur"><g class="frame-container-shadows"><g fill="none"><g class="fills" id="fills-c53ee40d-559c-809e-8007-bfd8bbff0c05"><rect rx="0" ry="0" x="0" y="0" width="24" height="24" transform="matrix(1.000000, 0.000000, 0.000000, 1.000000, 0.000000, 0.000000)" class="frame-background"/></g><g class="frame-children"><g id="shape-c53ee40d-559c-809e-8007-bfd8bbff0c06" rx="0" ry="0" style="fill: rgb(0, 0, 0);"><g id="shape-c53ee40d-559c-809e-8007-bfd8bbff0c07" style="display: none;"><g class="fills" id="fills-c53ee40d-559c-809e-8007-bfd8bbff0c07"><rect width="24" height="24" x="0" transform="matrix(1.000000, 0.000000, 0.000000, 1.000000, 0.000000, 0.000000)" style="fill: none;" ry="0" fill="none" rx="0" y="0"/></g><g fill="none" id="strokes-5c4093ee-5bf7-80c5-8007-bfe27843115f-c53ee40d-559c-809e-8007-bfd8bbff0c07" class="strokes"><g class="stroke-shape"><rect rx="0" ry="0" x="0" y="0" transform="matrix(1.000000, 0.000000, 0.000000, 1.000000, 0.000000, 0.000000)" width="24" height="24" style="fill: none; stroke-width: 1.5; stroke: rgb(0, 0, 0); stroke-opacity: 1;"/></g></g></g><g id="shape-c53ee40d-559c-809e-8007-bfd8bbff0c08"><g class="fills" id="fills-c53ee40d-559c-809e-8007-bfd8bbff0c08"><path d="M21,15C20,15,19.287841796875,15.751708984375,18,15.75C12.614990234375,15.75,8.25,11.385009765625,8.25,6C8.25,4.6700439453125,8.5159912109375,3.4029541015625,8.9979248046875,2.248046875C5.36529541015625,3.763427734375,2.9996337890625,7.31396484375,3,11.25C3,16.635009765625,7.364990234375,21,12.75,21C16.282470703125,21.000328063964844,18.776611328125,19.921716690063477,21,17C21.47265625,16.378870010375977,22,14.999942779541016,21,15L21,15L21,15" fill="none" stroke-linejoin="round" style="fill: none;"/></g><g fill="none" stroke-linejoin="round" id="strokes-5c4093ee-5bf7-80c5-8007-bfe278438805-c53ee40d-559c-809e-8007-bfd8bbff0c08" class="strokes"><g class="stroke-shape"><path d="M21,15C20,15,19.287841796875,15.751708984375,18,15.75C12.614990234375,15.75,8.25,11.385009765625,8.25,6C8.25,4.6700439453125,8.5159912109375,3.4029541015625,8.9979248046875,2.248046875C5.36529541015625,3.763427734375,2.9996337890625,7.31396484375,3,11.25C3,16.635009765625,7.364990234375,21,12.75,21C16.282470703125,21.000328063964844,18.776611328125,19.921716690063477,21,17C21.47265625,16.378870010375977,22,14.999942779541016,21,15L21,15L21,15" style="fill: none; stroke-width: 1.5; stroke: rgb(0, 0, 0); stroke-opacity: 1;"/></g></g></g></g></g></g></g></g></g></g></svg>