<svg width="24" xmlns="http://www.w3.org/2000/svg" height="24" id="screenshot-c53ee40d-559c-809e-8007-bfd8bbff0c05" viewBox="0 0 24 24" xmlns:xlink="http://www.w3.org/1999/xlink" fill="none" version="1.1"><g id="shape-c53ee40d-559c-809e-8007-bfd8bbff0c05"><g class="frame-container-wrapper"><g class="frame-container-blur"><g class="frame-container-shadows"><g fill="none"><g class="fills" id="fills-c53ee40d-559c-809e-8007-bfd8bbff0c05"><rect rx="0" ry="0" x="0" y="0" width="24" height="24" transform="matrix(1.000000, 0.000000, 0.000000, 1.000000, 0.000000, 0.000000)" class="frame-background"/></g><g class="frame-children"><g id="shape-c53ee40d-559c-809e-8007-bfd8bbff0c06" rx="0" ry="0" style="fill: rgb(0, 0, 0);"><g id="shape-c53ee40d-559c-809e-8007-bfd8bbff0c07" style="display: none;"><g class="fills" id="fills-c53ee40d-559c-809e-8007-bfd8bbff0c07"><rect width="24" height="24" x="0" transform="matrix(1.000000, 0.000000, 0.000000, 1.000000, 0.000000, 0.000000)" style="fill: none;" ry="0" fill="none" rx="0" y="0"/></g><g fill="none" id="strokes-0461bb34-bfaa-80dd-8007-c00222c0e053-c53ee40d-559c-809e-8007-bfd8bbff0c07" class="strokes"><g class="stroke-shape"><rect rx="0" ry="0" x="0" y="0" transform="matrix(1.000000, 0.000000, 0.000000, 1.000000, 0.000000, 0.000000)" width="24" height="24" style="fill: none; stroke-width: 1.5; stroke: rgb(0, 0, 0); stroke-opacity: 1;"/></g></g></g><g id="shape-c53ee40d-559c-809e-8007-bfd8bbff0c08"><g class="fills" id="fills-c53ee40d-559c-809e-8007-bfd8bbff0c08"><path d="M21,15C21,15,19.287841796875,15.751708984375,18,15.75C12.614990234375,15.75,8.25,11.385009765625,8.25,6C8.25,4.6700439453125,8.5159912109375,3.4029541015625,8.9979248046875,2.248046875C5.36529541015625,3.763427734375,2.9996337890625,7.31396484375,3,11.25C3,16.635009765625,7.364990234375,21,12.75,21C16.282470703125,21.000328063964844,19,19,20,17C20.3489990234375,16.3018798828125,21,15,21,15L21,15L21,15" fill="none" stroke-linejoin="round" style="fill: none;"/></g><g fill="none" stroke-linejoin="round" id="strokes-0461bb34-bfaa-80dd-8007-c00222c1d1f8-c53ee40d-559c-809e-8007-bfd8bbff0c08" class="strokes"><g class="stroke-shape"><defs><marker refX="3" fill-opacity="1" orient="auto-start-reverse" id="marker-render-4-round" viewBox="0 0 6 6" fill="#000000" refY="3" markerWidth="6" markerHeight="6"><path d="M 3 2.5 A 0.5 0.5 0 0 1 3 3.5 "/></marker></defs><path d="M21,15C21,15,19.287841796875,15.751708984375,18,15.75C12.614990234375,15.75,8.25,11.385009765625,8.25,6C8.25,4.6700439453125,8.5159912109375,3.4029541015625,8.9979248046875,2.248046875C5.36529541015625,3.763427734375,2.9996337890625,7.31396484375,3,11.25C3,16.635009765625,7.364990234375,21,12.75,21C16.282470703125,21.000328063964844,19,19,20,17C20.3489990234375,16.3018798828125,21,15,21,15L21,15L21,15" style="fill: none; stroke-width: 1.5; stroke: rgb(0, 0, 0); stroke-opacity: 1; marker-start: url(&quot;#marker-render-4-round&quot;);"/></g></g></g></g></g></g></g></g></g></g></svg>