<svg width="24" xmlns="http://www.w3.org/2000/svg" height="24" id="screenshot-c53ee40d-559c-809e-8007-bfe02f8347de" viewBox="0 0 24 24" xmlns:xlink="http://www.w3.org/1999/xlink" fill="none" version="1.1"><g id="shape-c53ee40d-559c-809e-8007-bfe02f8347de"><g class="frame-container-wrapper"><g class="frame-container-blur"><g class="frame-container-shadows"><g fill="none"><g class="fills" id="fills-c53ee40d-559c-809e-8007-bfe02f8347de"><rect rx="0" ry="0" x="0" y="0" width="24" height="24" transform="matrix(1.000000, 0.000000, 0.000000, 1.000000, 0.000000, 0.000000)" class="frame-background"/></g><g class="frame-children"><g id="shape-c53ee40d-559c-809e-8007-bfe02f8347df" rx="0" ry="0" style="fill: rgb(0, 0, 0);"><g id="shape-c53ee40d-559c-809e-8007-bfe02f8347e0" style="display: none;"><g class="fills" id="fills-c53ee40d-559c-809e-8007-bfe02f8347e0"><rect width="24" height="24" x="0" transform="matrix(1.000000, 0.000000, 0.000000, 1.000000, 0.000000, 0.000000)" style="fill: none;" ry="0" fill="none" rx="0" y="0"/></g><g fill="none" id="strokes-5c4093ee-5bf7-80c5-8007-bfe27851dc77-c53ee40d-559c-809e-8007-bfe02f8347e0" class="strokes"><g class="stroke-shape"><rect rx="0" ry="0" x="0" y="0" transform="matrix(1.000000, 0.000000, 0.000000, 1.000000, 0.000000, 0.000000)" width="24" height="24" style="fill: none; stroke-width: 1.5; stroke: rgb(0, 0, 0); stroke-opacity: 1;"/></g></g></g><g id="shape-c53ee40d-559c-809e-8007-bfe02f8347e1"><g class="fills" id="fills-c53ee40d-559c-809e-8007-bfe02f8347e1"><path d="M16.86199951171875,4.487060546875L18.54901123046875,2.799072265625C19.28131103515625,2.066650390625,20.4686279296875,2.066650390625,21.20098876953125,2.799072265625C21.93328857421875,3.53125,21.93328857421875,4.71875,21.20098876953125,5.450927734375L6.83197021484375,19.820068359375C6.30328369140625,20.348388671875,5.6513671875,20.73681640625,4.93499755859375,20.949951171875L2.25,21.75L3.04998779296875,19.06494140625C3.26324462890625,18.3486328125,3.651611328125,17.69677734375,4.17999267578125,17.16796875L16.86297607421875,4.487060546875ZM16.86199951171875,4.487060546875L19.5,7.125" fill="none" stroke-linejoin="round" style="fill: none;"/></g><g fill="none" stroke-linejoin="round" id="strokes-5c4093ee-5bf7-80c5-8007-bfe2785225af-c53ee40d-559c-809e-8007-bfe02f8347e1" class="strokes"><g class="stroke-shape"><path d="M16.86199951171875,4.487060546875L18.54901123046875,2.799072265625C19.28131103515625,2.066650390625,20.4686279296875,2.066650390625,21.20098876953125,2.799072265625C21.93328857421875,3.53125,21.93328857421875,4.71875,21.20098876953125,5.450927734375L6.83197021484375,19.820068359375C6.30328369140625,20.348388671875,5.6513671875,20.73681640625,4.93499755859375,20.949951171875L2.25,21.75L3.04998779296875,19.06494140625C3.26324462890625,18.3486328125,3.651611328125,17.69677734375,4.17999267578125,17.16796875L16.86297607421875,4.487060546875ZM16.86199951171875,4.487060546875L19.5,7.125" style="fill: none; stroke-width: 1.5; stroke: rgb(0, 0, 0); stroke-opacity: 1;"/></g></g></g></g></g></g></g></g></g></g></svg>