<svg width="24" xmlns="http://www.w3.org/2000/svg" height="24" id="screenshot-e7b61c4e-e9ad-8043-8007-bfd489d324a8" viewBox="0 0 24 24" xmlns:xlink="http://www.w3.org/1999/xlink" fill="none" version="1.1"><g id="shape-e7b61c4e-e9ad-8043-8007-bfd489d324a8"><g class="frame-container-wrapper"><g class="frame-container-blur"><g class="frame-container-shadows"><g fill="none"><g class="fills" id="fills-e7b61c4e-e9ad-8043-8007-bfd489d324a8"><rect rx="0" ry="0" x="0" y="0" width="24" height="24" transform="matrix(1.000000, 0.000000, 0.000000, 1.000000, 0.000000, 0.000000)" class="frame-background"/></g><g class="frame-children"><g id="shape-e7b61c4e-e9ad-8043-8007-bfd489d324a9" rx="0" ry="0" style="fill: rgb(0, 0, 0);"><g id="shape-e7b61c4e-e9ad-8043-8007-bfd489d324aa" style="display: none;"><g class="fills" id="fills-e7b61c4e-e9ad-8043-8007-bfd489d324aa"><rect width="24" height="24" x="0" transform="matrix(1.000000, 0.000000, 0.000000, 1.000000, 0.000000, 0.000000)" style="fill: none;" ry="0" fill="none" rx="0" y="0"/></g><g fill="none" id="strokes-5c4093ee-5bf7-80c5-8007-bfe278634c1a-e7b61c4e-e9ad-8043-8007-bfd489d324aa" class="strokes"><g class="stroke-shape"><rect rx="0" ry="0" x="0" y="0" transform="matrix(1.000000, 0.000000, 0.000000, 1.000000, 0.000000, 0.000000)" width="24" height="24" style="fill: none; stroke-width: 1.5; stroke: rgb(0, 0, 0); stroke-opacity: 1;"/></g></g></g><g id="shape-e7b61c4e-e9ad-8043-8007-bfd489d324ab"><g class="fills" id="fills-e7b61c4e-e9ad-8043-8007-bfd489d324ab"><path d="M15,19.1280517578125C15.85302734375,19.3756103515625,16.73681640625,19.5008544921875,17.625,19.5C19.053466796875,19.5020751953125,20.4632568359375,19.1763916015625,21.7459716796875,18.5479736328125C21.823974609375,16.7064208984375,20.670654296875,15.03662109375,18.920654296875,14.45751953125C17.1707763671875,13.87841796875,15.2490234375,14.530517578125,14.2130126953125,16.0550537109375M15,19.1280517578125L15,19.125C15,18.011962890625,14.7149658203125,16.9649658203125,14.2139892578125,16.0550537109375M15,19.1280517578125L15,19.2340087890625C13.075439453125,20.39306640625,10.87060546875,21.0037841796875,8.6240234375,21C6.29296875,21,4.112060546875,20.35498046875,2.25,19.2340087890625L2.2490234375,19.125C2.2474365234375,16.213134765625,4.218994140625,13.6702880859375,7.03955078125,12.9466552734375C9.8599853515625,12.222900390625,12.8123779296875,13.502197265625,14.2130126953125,16.0550537109375M12,6.375C12,8.239013671875,10.489013671875,9.75,8.625,9.75C6.7611083984375,9.75,5.25,8.239013671875,5.25,6.375C5.25,4.510986328125,6.7611083984375,3,8.625,3C10.489013671875,3,12,4.510986328125,12,6.375ZM20.25,8.625C20.25,10.07470703125,19.07470703125,11.25,17.625,11.25C16.17529296875,11.25,15,10.07470703125,15,8.625C15,7.17529296875,16.17529296875,6,17.625,6C19.07470703125,6,20.25,7.17529296875,20.25,8.625Z" fill="none" stroke-linejoin="round" style="fill: none;"/></g><g fill="none" stroke-linejoin="round" id="strokes-5c4093ee-5bf7-80c5-8007-bfe278639c88-e7b61c4e-e9ad-8043-8007-bfd489d324ab" class="strokes"><g class="stroke-shape"><path d="M15,19.1280517578125C15.85302734375,19.3756103515625,16.73681640625,19.5008544921875,17.625,19.5C19.053466796875,19.5020751953125,20.4632568359375,19.1763916015625,21.7459716796875,18.5479736328125C21.823974609375,16.7064208984375,20.670654296875,15.03662109375,18.920654296875,14.45751953125C17.1707763671875,13.87841796875,15.2490234375,14.530517578125,14.2130126953125,16.0550537109375M15,19.1280517578125L15,19.125C15,18.011962890625,14.7149658203125,16.9649658203125,14.2139892578125,16.0550537109375M15,19.1280517578125L15,19.2340087890625C13.075439453125,20.39306640625,10.87060546875,21.0037841796875,8.6240234375,21C6.29296875,21,4.112060546875,20.35498046875,2.25,19.2340087890625L2.2490234375,19.125C2.2474365234375,16.213134765625,4.218994140625,13.6702880859375,7.03955078125,12.9466552734375C9.8599853515625,12.222900390625,12.8123779296875,13.502197265625,14.2130126953125,16.0550537109375M12,6.375C12,8.239013671875,10.489013671875,9.75,8.625,9.75C6.7611083984375,9.75,5.25,8.239013671875,5.25,6.375C5.25,4.510986328125,6.7611083984375,3,8.625,3C10.489013671875,3,12,4.510986328125,12,6.375ZM20.25,8.625C20.25,10.07470703125,19.07470703125,11.25,17.625,11.25C16.17529296875,11.25,15,10.07470703125,15,8.625C15,7.17529296875,16.17529296875,6,17.625,6C19.07470703125,6,20.25,7.17529296875,20.25,8.625Z" style="fill: none; stroke-width: 1.5; stroke: rgb(0, 0, 0); stroke-opacity: 1;"/></g></g></g></g></g></g></g></g></g></g></svg>