<svg width="24" xmlns="http://www.w3.org/2000/svg" height="24" id="screenshot-e7b61c4e-e9ad-8043-8007-bfd489d324a4" viewBox="0 0 24 24" xmlns:xlink="http://www.w3.org/1999/xlink" fill="none" version="1.1"><g id="shape-e7b61c4e-e9ad-8043-8007-bfd489d324a4"><g class="frame-container-wrapper"><g class="frame-container-blur"><g class="frame-container-shadows"><g fill="none"><g class="fills" id="fills-e7b61c4e-e9ad-8043-8007-bfd489d324a4"><rect rx="0" ry="0" x="0" y="0" width="24" height="24" transform="matrix(1.000000, 0.000000, 0.000000, 1.000000, 0.000000, 0.000000)" class="frame-background"/></g><g class="frame-children"><g id="shape-e7b61c4e-e9ad-8043-8007-bfd489d324a5" rx="0" ry="0" style="fill: rgb(0, 0, 0);"><g id="shape-e7b61c4e-e9ad-8043-8007-bfd489d324a6" style="display: none;"><g class="fills" id="fills-e7b61c4e-e9ad-8043-8007-bfd489d324a6"><rect width="24" height="24" x="0" transform="matrix(1.000000, 0.000000, 0.000000, 1.000000, 0.000000, 0.000000)" style="fill: none;" ry="0" fill="none" rx="0" y="0"/></g><g fill="none" id="strokes-5c4093ee-5bf7-80c5-8007-bfe2786abd14-e7b61c4e-e9ad-8043-8007-bfd489d324a6" class="strokes"><g class="stroke-shape"><rect rx="0" ry="0" x="0" y="0" transform="matrix(1.000000, 0.000000, 0.000000, 1.000000, 0.000000, 0.000000)" width="24" height="24" style="fill: none; stroke-width: 1.5; stroke: rgb(0, 0, 0); stroke-opacity: 1;"/></g></g></g><g id="shape-e7b61c4e-e9ad-8043-8007-bfd489d324a7"><g class="fills" id="fills-e7b61c4e-e9ad-8043-8007-bfd489d324a7"><path d="M15.75,6.375C15.75,8.239013671875,14.239013671875,9.75,12.375,9.75C10.5111083984375,9.75,9,8.239013671875,9,6.375C9,4.510986328125,10.5111083984375,3,12.375,3C14.239013671875,3,15.75,4.510986328125,15.75,6.375L15.75,6.375M6,19.2349853515625L6,19C6,15.4791259765625,8.854248046875,12.75,12.375,12.75C15.8958740234375,12.75,18.75,15.6041259765625,18.75,19.125L18.75,19.2340087890625C16.8255615234375,20.39306640625,14.62060546875,21.0037841796875,12.3740234375,21C10.0430908203125,21,6,20,6,19.2340087890625L6,19.2349853515625" fill="none" stroke-linejoin="round" style="fill: none;"/></g><g fill="none" stroke-linejoin="round" id="strokes-5c4093ee-5bf7-80c5-8007-bfe2786ae7e2-e7b61c4e-e9ad-8043-8007-bfd489d324a7" class="strokes"><g class="stroke-shape"><path d="M15.75,6.375C15.75,8.239013671875,14.239013671875,9.75,12.375,9.75C10.5111083984375,9.75,9,8.239013671875,9,6.375C9,4.510986328125,10.5111083984375,3,12.375,3C14.239013671875,3,15.75,4.510986328125,15.75,6.375L15.75,6.375M6,19.2349853515625L6,19C6,15.4791259765625,8.854248046875,12.75,12.375,12.75C15.8958740234375,12.75,18.75,15.6041259765625,18.75,19.125L18.75,19.2340087890625C16.8255615234375,20.39306640625,14.62060546875,21.0037841796875,12.3740234375,21C10.0430908203125,21,6,20,6,19.2340087890625L6,19.2349853515625" style="fill: none; stroke-width: 1.5; stroke: rgb(0, 0, 0); stroke-opacity: 1;"/></g></g></g></g></g></g></g></g></g></g></svg>