<svg width="24" xmlns="http://www.w3.org/2000/svg" height="24" id="screenshot-c53ee40d-559c-809e-8007-bfe04536d3b9" viewBox="0 0 24 24" xmlns:xlink="http://www.w3.org/1999/xlink" fill="none" version="1.1"><g id="shape-c53ee40d-559c-809e-8007-bfe04536d3b9"><g class="frame-container-wrapper"><g class="frame-container-blur"><g class="frame-container-shadows"><g fill="none"><g class="fills" id="fills-c53ee40d-559c-809e-8007-bfe04536d3b9"><rect rx="0" ry="0" x="0" y="0" width="24" height="24" transform="matrix(1.000000, 0.000000, 0.000000, 1.000000, 0.000000, 0.000000)" class="frame-background"/></g><g class="frame-children"><g id="shape-c53ee40d-559c-809e-8007-bfe04536d3ba" rx="0" ry="0" style="fill: rgb(0, 0, 0);"><g id="shape-c53ee40d-559c-809e-8007-bfe04536d3bb" style="display: none;"><g class="fills" id="fills-c53ee40d-559c-809e-8007-bfe04536d3bb"><rect width="24" height="24" x="0" transform="matrix(1.000000, 0.000000, 0.000000, 1.000000, 0.000000, 0.000000)" style="fill: none;" ry="0" fill="none" rx="0" y="0"/></g><g fill="none" id="strokes-5c4093ee-5bf7-80c5-8007-bfe27866841a-c53ee40d-559c-809e-8007-bfe04536d3bb" class="strokes"><g class="stroke-shape"><rect rx="0" ry="0" x="0" y="0" transform="matrix(1.000000, 0.000000, 0.000000, 1.000000, 0.000000, 0.000000)" width="24" height="24" style="fill: none; stroke-width: 1.5; stroke: rgb(0, 0, 0); stroke-opacity: 1;"/></g></g></g><g id="shape-c53ee40d-559c-809e-8007-bfe04536d3bc"><g class="fills" id="fills-c53ee40d-559c-809e-8007-bfe04536d3bc"><path d="M5.25,5.653076171875C5.25,4.797119140625,6.1669921875,4.2548828125,6.9169921875,4.6669921875L18.45703125,11.014892578125C18.8162841796875,11.212890625,19.0394287109375,11.59033203125,19.0394287109375,12.00048828125C19.0394287109375,12.41064453125,18.8162841796875,12.7880859375,18.45703125,12.986083984375L6.9169921875,19.3330078125C6.568603515625,19.524658203125,6.14501953125,19.51806640625,5.802734375,19.315673828125C5.46044921875,19.113525390625,5.25030517578125,18.74560546875,5.25,18.347900390625L5.25,5.653076171875Z" fill="none" stroke-linejoin="round" style="fill: none;"/></g><g fill="none" stroke-linejoin="round" id="strokes-5c4093ee-5bf7-80c5-8007-bfe27866d39d-c53ee40d-559c-809e-8007-bfe04536d3bc" class="strokes"><g class="stroke-shape"><path d="M5.25,5.653076171875C5.25,4.797119140625,6.1669921875,4.2548828125,6.9169921875,4.6669921875L18.45703125,11.014892578125C18.8162841796875,11.212890625,19.0394287109375,11.59033203125,19.0394287109375,12.00048828125C19.0394287109375,12.41064453125,18.8162841796875,12.7880859375,18.45703125,12.986083984375L6.9169921875,19.3330078125C6.568603515625,19.524658203125,6.14501953125,19.51806640625,5.802734375,19.315673828125C5.46044921875,19.113525390625,5.25030517578125,18.74560546875,5.25,18.347900390625L5.25,5.653076171875Z" style="fill: none; stroke-width: 1.5; stroke: rgb(0, 0, 0); stroke-opacity: 1;"/></g></g></g></g></g></g></g></g></g></g></svg>