<svg width="24" xmlns="http://www.w3.org/2000/svg" height="24" id="screenshot-e7b61c4e-e9ad-8043-8007-bc3c7eb06bb4" viewBox="0 0 24 24" xmlns:xlink="http://www.w3.org/1999/xlink" fill="none" version="1.1"><g id="shape-e7b61c4e-e9ad-8043-8007-bc3c7eb06bb4"><g class="frame-container-wrapper"><g class="frame-container-blur"><g class="frame-container-shadows"><g fill="none"><g class="fills" id="fills-e7b61c4e-e9ad-8043-8007-bc3c7eb06bb4"><rect rx="0" ry="0" x="0" y="0" width="24" height="24" transform="matrix(1.000000, 0.000000, 0.000000, 1.000000, 0.000000, 0.000000)" class="frame-background"/></g><g class="frame-children"><g id="shape-e7b61c4e-e9ad-8043-8007-bc3c7eb06bb5" rx="0" ry="0" style="fill: rgb(0, 0, 0);"><g id="shape-e7b61c4e-e9ad-8043-8007-bc3c7eb06bb6" style="display: none;"><g class="fills" id="fills-e7b61c4e-e9ad-8043-8007-bc3c7eb06bb6"><rect width="24" height="24" x="0" transform="matrix(1.000000, 0.000000, 0.000000, 1.000000, 0.000000, 0.000000)" style="fill: none;" ry="0" fill="none" rx="0" y="0"/></g><g fill="none" id="strokes-5c4093ee-5bf7-80c5-8007-bfe278678d0b-e7b61c4e-e9ad-8043-8007-bc3c7eb06bb6" class="strokes"><g class="stroke-shape"><rect rx="0" ry="0" x="0" y="0" transform="matrix(1.000000, 0.000000, 0.000000, 1.000000, 0.000000, 0.000000)" width="24" height="24" style="fill: none; stroke-width: 1.5; stroke: rgb(0, 0, 0); stroke-opacity: 1;"/></g></g></g><g id="shape-e7b61c4e-e9ad-8043-8007-bc3c7eb06bb7"><g class="fills" id="fills-e7b61c4e-e9ad-8043-8007-bc3c7eb06bb7"><path d="M9.8790283203125,7.519032001495361C11.0499267578125,6.493885517120361,12.949951171875,6.493885517120361,14.1209716796875,7.519032001495361C15.29296875,8.543933868408203,15.29296875,10.206043243408203,14.1209716796875,11.230945587158203C13.91796875,11.409900665283203,13.6910400390625,11.556873321533203,13.450927734375,11.673084259033203C12.7059326171875,12.033924102783203,12.0009765625,12.672107696533203,12.0009765625,13.499988555908203L12.0009765625,14.249988555908203M21,11.999988555908203C21,16.970447540283203,16.9705810546875,20.999988555908203,12,20.999988555908203C7.0294189453125,20.999988555908203,3,16.970447540283203,3,11.999988555908203C3,7.029530048370361,7.0294189453125,2.9999887943267822,12,2.9999887943267822C16.9705810546875,2.9999887943267822,21,7.029530048370361,21,11.999988555908203ZM12,17.249988555908203L12.0079345703125,17.249988555908203L12.0079345703125,17.258045196533203L12,17.258045196533203L12,17.249988555908203Z" fill="none" stroke-linejoin="round" style="fill: none;"/></g><g fill="none" stroke-linejoin="round" id="strokes-5c4093ee-5bf7-80c5-8007-bfe278678d0c-e7b61c4e-e9ad-8043-8007-bc3c7eb06bb7" class="strokes"><g class="stroke-shape"><path d="M9.8790283203125,7.519032001495361C11.0499267578125,6.493885517120361,12.949951171875,6.493885517120361,14.1209716796875,7.519032001495361C15.29296875,8.543933868408203,15.29296875,10.206043243408203,14.1209716796875,11.230945587158203C13.91796875,11.409900665283203,13.6910400390625,11.556873321533203,13.450927734375,11.673084259033203C12.7059326171875,12.033924102783203,12.0009765625,12.672107696533203,12.0009765625,13.499988555908203L12.0009765625,14.249988555908203M21,11.999988555908203C21,16.970447540283203,16.9705810546875,20.999988555908203,12,20.999988555908203C7.0294189453125,20.999988555908203,3,16.970447540283203,3,11.999988555908203C3,7.029530048370361,7.0294189453125,2.9999887943267822,12,2.9999887943267822C16.9705810546875,2.9999887943267822,21,7.029530048370361,21,11.999988555908203ZM12,17.249988555908203L12.0079345703125,17.249988555908203L12.0079345703125,17.258045196533203L12,17.258045196533203L12,17.249988555908203Z" style="fill: none; stroke-width: 1.5; stroke: rgb(0, 0, 0); stroke-opacity: 1;"/></g></g></g></g></g></g></g></g></g></g></svg>