<svg width="24" xmlns="http://www.w3.org/2000/svg" height="24" id="screenshot-e7b61c4e-e9ad-8043-8007-bc3c7eb06b98" viewBox="0 0 24 24" xmlns:xlink="http://www.w3.org/1999/xlink" fill="none" version="1.1"><g id="shape-e7b61c4e-e9ad-8043-8007-bc3c7eb06b98"><g class="frame-container-wrapper"><g class="frame-container-blur"><g class="frame-container-shadows"><g fill="none"><g class="fills" id="fills-e7b61c4e-e9ad-8043-8007-bc3c7eb06b98"><rect rx="0" ry="0" x="0" y="0" width="24" height="24" transform="matrix(1.000000, 0.000000, 0.000000, 1.000000, 0.000000, 0.000000)" class="frame-background"/></g><g class="frame-children"><g id="shape-e7b61c4e-e9ad-8043-8007-bc3c7eb06b99" rx="0" ry="0" style="fill: rgb(0, 0, 0);"><g id="shape-e7b61c4e-e9ad-8043-8007-bc3c7eb06b9a" style="display: none;"><g class="fills" id="fills-e7b61c4e-e9ad-8043-8007-bc3c7eb06b9a"><rect width="24" height="24" x="0" transform="matrix(1.000000, 0.000000, 0.000000, 1.000000, 0.000000, 0.000000)" style="fill: none;" ry="0" fill="none" rx="0" y="0"/></g><g fill="none" id="strokes-d378b3d5-3b76-8010-8007-c0038d02a6b8-e7b61c4e-e9ad-8043-8007-bc3c7eb06b9a" class="strokes"><g class="stroke-shape"><rect rx="0" ry="0" x="0" y="0" transform="matrix(1.000000, 0.000000, 0.000000, 1.000000, 0.000000, 0.000000)" width="24" height="24" style="fill: none; stroke-width: 1.5; stroke: rgb(0, 0, 0); stroke-opacity: 1;"/></g></g></g><g id="shape-e7b61c4e-e9ad-8043-8007-bc3c7eb06b9b"><g class="fills" id="fills-e7b61c4e-e9ad-8043-8007-bc3c7eb06b9b"><path d="M21,21L15.802978515625,15.802978515625M15.802978515625,15.802978515625C17.69775390625,13.908203125,18.437744140625,11.1466064453125,17.7442626953125,8.5582275390625C17.0506591796875,5.969970703125,15.029052734375,3.9483642578125,12.440673828125,3.2547607421875C9.8524169921875,2.561279296875,7.0906982421875,3.30126953125,5.196044921875,5.196044921875C2.2669677734375,8.125,2.2669677734375,12.8739013671875,5.196044921875,15.802978515625C8.125,18.7320556640625,12.8739013671875,18.7320556640625,15.802978515625,15.802978515625Z" fill="none" stroke-linejoin="round" style="fill: none;"/></g><g fill="none" stroke-linejoin="round" id="strokes-d378b3d5-3b76-8010-8007-c0038d03fbe4-e7b61c4e-e9ad-8043-8007-bc3c7eb06b9b" class="strokes"><g class="stroke-shape"><path d="M21,21L15.802978515625,15.802978515625M15.802978515625,15.802978515625C17.69775390625,13.908203125,18.437744140625,11.1466064453125,17.7442626953125,8.5582275390625C17.0506591796875,5.969970703125,15.029052734375,3.9483642578125,12.440673828125,3.2547607421875C9.8524169921875,2.561279296875,7.0906982421875,3.30126953125,5.196044921875,5.196044921875C2.2669677734375,8.125,2.2669677734375,12.8739013671875,5.196044921875,15.802978515625C8.125,18.7320556640625,12.8739013671875,18.7320556640625,15.802978515625,15.802978515625Z" style="fill: none; stroke-width: 1.5; stroke: rgb(0, 0, 0); stroke-opacity: 1; stroke-linecap: round;"/></g></g></g></g></g></g></g></g></g></g></svg>