<svg width="24" xmlns="http://www.w3.org/2000/svg" height="24" id="screenshot-e7b61c4e-e9ad-8043-8007-bc3c7eb06b80" viewBox="0 0 24 24" xmlns:xlink="http://www.w3.org/1999/xlink" fill="none" version="1.1"><g id="shape-e7b61c4e-e9ad-8043-8007-bc3c7eb06b80"><g class="frame-container-wrapper"><g class="frame-container-blur"><g class="frame-container-shadows"><g fill="none"><g class="fills" id="fills-e7b61c4e-e9ad-8043-8007-bc3c7eb06b80"><rect rx="0" ry="0" x="0" y="0" width="24" height="24" transform="matrix(1.000000, 0.000000, 0.000000, 1.000000, 0.000000, 0.000000)" class="frame-background"/></g><g class="frame-children"><g id="shape-e7b61c4e-e9ad-8043-8007-bc3c7eb06b81" rx="0" ry="0" style="fill: rgb(0, 0, 0);"><g id="shape-e7b61c4e-e9ad-8043-8007-bc3c7eb06b82" style="display: none;"><g class="fills" id="fills-e7b61c4e-e9ad-8043-8007-bc3c7eb06b82"><rect width="24" height="24" x="0" transform="matrix(1.000000, 0.000000, 0.000000, 1.000000, 0.000000, 0.000000)" style="fill: none;" ry="0" fill="none" rx="0" y="0"/></g><g fill="none" id="strokes-5c4093ee-5bf7-80c5-8007-bfe2784fe6cc-e7b61c4e-e9ad-8043-8007-bc3c7eb06b82" class="strokes"><g class="stroke-shape"><rect rx="0" ry="0" x="0" y="0" transform="matrix(1.000000, 0.000000, 0.000000, 1.000000, 0.000000, 0.000000)" width="24" height="24" style="fill: none; stroke-width: 1.5; stroke: rgb(0, 0, 0); stroke-opacity: 1;"/></g></g></g><g id="shape-e7b61c4e-e9ad-8043-8007-bc3c7eb06b83"><g class="fills" id="fills-e7b61c4e-e9ad-8043-8007-bc3c7eb06b83"><path d="M9,8.250019073486328L7.5,8.250019073486328C6.25732421875,8.250019073486328,5.25,9.257343292236328,5.25,10.500019073486328L5.25,19.500019073486328C5.25,20.742694854736328,6.25732421875,21.750019073486328,7.5,21.750019073486328L16.5,21.750019073486328C17.74267578125,21.750019073486328,18.75,20.742694854736328,18.75,19.500019073486328L18.75,10.500019073486328C18.75,9.257343292236328,17.74267578125,8.250019073486328,16.5,8.250019073486328L15,8.250019073486328M15,5.25001859664917L12,2.250018835067749L9,5.25001859664917M12,2.250018835067749L12,15.000019073486328" fill="none" stroke-linejoin="round" style="fill: none;"/></g><g fill="none" stroke-linejoin="round" id="strokes-5c4093ee-5bf7-80c5-8007-bfe2785006c1-e7b61c4e-e9ad-8043-8007-bc3c7eb06b83" class="strokes"><g class="stroke-shape"><path d="M9,8.250019073486328L7.5,8.250019073486328C6.25732421875,8.250019073486328,5.25,9.257343292236328,5.25,10.500019073486328L5.25,19.500019073486328C5.25,20.742694854736328,6.25732421875,21.750019073486328,7.5,21.750019073486328L16.5,21.750019073486328C17.74267578125,21.750019073486328,18.75,20.742694854736328,18.75,19.500019073486328L18.75,10.500019073486328C18.75,9.257343292236328,17.74267578125,8.250019073486328,16.5,8.250019073486328L15,8.250019073486328M15,5.25001859664917L12,2.250018835067749L9,5.25001859664917M12,2.250018835067749L12,15.000019073486328" style="fill: none; stroke-width: 1.5; stroke: rgb(0, 0, 0); stroke-opacity: 1; stroke-linecap: round;"/></g></g></g></g></g></g></g></g></g></g></svg>