<svg width="24" xmlns="http://www.w3.org/2000/svg" height="24" id="screenshot-c53ee40d-559c-809e-8007-bfe1d62aa72b" viewBox="0 0 24 24" xmlns:xlink="http://www.w3.org/1999/xlink" fill="none" version="1.1"><g id="shape-c53ee40d-559c-809e-8007-bfe1d62aa72b"><g class="frame-container-wrapper"><g class="frame-container-blur"><g class="frame-container-shadows"><g fill="none"><g class="fills" id="fills-c53ee40d-559c-809e-8007-bfe1d62aa72b"><rect rx="0" ry="0" x="0" y="0" width="24" height="24" transform="matrix(1.000000, 0.000000, 0.000000, 1.000000, 0.000000, 0.000000)" class="frame-background"/></g><g class="frame-children"><g id="shape-c53ee40d-559c-809e-8007-bfe1d62aa72c" rx="0" ry="0" style="fill: rgb(0, 0, 0);"><g id="shape-c53ee40d-559c-809e-8007-bfe1d62aa72d" style="display: none;"><g class="fills" id="fills-c53ee40d-559c-809e-8007-bfe1d62aa72d"><rect width="24" height="24" x="0" transform="matrix(1.000000, 0.000000, 0.000000, 1.000000, 0.000000, 0.000000)" style="fill: none;" ry="0" fill="none" rx="0" y="0"/></g><g fill="none" id="strokes-5c4093ee-5bf7-80c5-8007-bfe2786ba5d6-c53ee40d-559c-809e-8007-bfe1d62aa72d" class="strokes"><g class="stroke-shape"><rect rx="0" ry="0" x="0" y="0" transform="matrix(1.000000, 0.000000, 0.000000, 1.000000, 0.000000, 0.000000)" width="24" height="24" style="fill: none; stroke-width: 1.5; stroke: rgb(0, 0, 0); stroke-opacity: 1;"/></g></g></g><g id="shape-c53ee40d-559c-809e-8007-bfe1d62aa72e"><g class="fills" id="fills-c53ee40d-559c-809e-8007-bfe1d62aa72e"><path d="M9,12.75L11.25,15L15,9.75M12,2.714019775390625C9.7357177734375,4.864288330078125,6.72027587890625,6.043609619140625,3.5980224609375,6.000030517578125C3.20086669921875,7.209991455078125,2.99896240234375,8.4754638671875,3,9.7490234375C3,15.34100341796875,6.82403564453125,20.03900146484375,12,21.37200927734375C17.176025390625,20.0400390625,21,15.342041015625,21,9.75C21,8.44000244140625,20.78997802734375,7.178985595703125,20.4019775390625,5.999053955078125L20.25,5.999053955078125C17.05401611328125,5.999053955078125,14.1500244140625,4.751007080078125,12,2.714019775390625Z" fill="none" stroke-linejoin="round" style="fill: none;"/></g><g fill="none" stroke-linejoin="round" id="strokes-5c4093ee-5bf7-80c5-8007-bfe2786ba5d7-c53ee40d-559c-809e-8007-bfe1d62aa72e" class="strokes"><g class="stroke-shape"><path d="M9,12.75L11.25,15L15,9.75M12,2.714019775390625C9.7357177734375,4.864288330078125,6.72027587890625,6.043609619140625,3.5980224609375,6.000030517578125C3.20086669921875,7.209991455078125,2.99896240234375,8.4754638671875,3,9.7490234375C3,15.34100341796875,6.82403564453125,20.03900146484375,12,21.37200927734375C17.176025390625,20.0400390625,21,15.342041015625,21,9.75C21,8.44000244140625,20.78997802734375,7.178985595703125,20.4019775390625,5.999053955078125L20.25,5.999053955078125C17.05401611328125,5.999053955078125,14.1500244140625,4.751007080078125,12,2.714019775390625Z" style="fill: none; stroke-width: 1.5; stroke: rgb(0, 0, 0); stroke-opacity: 1; stroke-linecap: round;"/></g></g></g></g></g></g></g></g></g></g></svg>