<svg width="24" xmlns="http://www.w3.org/2000/svg" height="24" id="screenshot-e7b61c4e-e9ad-8043-8007-bc3c7eb06bb8" viewBox="0 0 24 24" xmlns:xlink="http://www.w3.org/1999/xlink" fill="none" version="1.1"><g id="shape-e7b61c4e-e9ad-8043-8007-bc3c7eb06bb8"><g class="frame-container-wrapper"><g class="frame-container-blur"><g class="frame-container-shadows"><g fill="none"><g class="fills" id="fills-e7b61c4e-e9ad-8043-8007-bc3c7eb06bb8"><rect rx="0" ry="0" x="0" y="0" width="24" height="24" transform="matrix(1.000000, 0.000000, 0.000000, 1.000000, 0.000000, 0.000000)" class="frame-background"/></g><g class="frame-children"><g id="shape-e7b61c4e-e9ad-8043-8007-bc3c7eb06bb9" rx="0" ry="0" style="fill: rgb(0, 0, 0);"><g id="shape-e7b61c4e-e9ad-8043-8007-bc3c7eb06bba" style="display: none;"><g class="fills" id="fills-e7b61c4e-e9ad-8043-8007-bc3c7eb06bba"><rect width="24" height="24" x="0" transform="matrix(1.000000, 0.000000, 0.000000, 1.000000, 0.000000, 0.000000)" style="fill: none;" ry="0" fill="none" rx="0" y="0"/></g><g fill="none" id="strokes-5c4093ee-5bf7-80c5-8007-bfe2786871e5-e7b61c4e-e9ad-8043-8007-bc3c7eb06bba" class="strokes"><g class="stroke-shape"><rect rx="0" ry="0" x="0" y="0" transform="matrix(1.000000, 0.000000, 0.000000, 1.000000, 0.000000, 0.000000)" width="24" height="24" style="fill: none; stroke-width: 1.5; stroke: rgb(0, 0, 0); stroke-opacity: 1;"/></g></g></g><g id="shape-e7b61c4e-e9ad-8043-8007-bc3c7eb06bbb"><g class="fills" id="fills-e7b61c4e-e9ad-8043-8007-bc3c7eb06bbb"><path d="M19.114013671875,5.6362385749816895C20.8018798828125,7.3237385749816895,21.7501220703125,9.612801551818848,21.7501220703125,12.000008583068848C21.7501220703125,14.387215614318848,20.8018798828125,16.67627716064453,19.114013671875,18.36377716064453M16.4630126953125,8.288094520568848C18.5128173828125,10.338387489318848,18.5128173828125,13.661629676818848,16.4630126953125,15.711922645568848M6.75,8.250008583068848L7.09222412109375,7.9077839851379395L11.469970703125,3.5297935009002686C11.6844482421875,3.3159263134002686,12.0068359375,3.2519614696502686,12.286865234375,3.3676841259002686C12.5670166015625,3.4838950634002686,12.749755859375,3.7568442821502686,12.75,4.0600666999816895L12.75,19.93994903564453C12.749755859375,20.24317169189453,12.5670166015625,20.51612091064453,12.286865234375,20.63233184814453C12.0068359375,20.74805450439453,11.6844482421875,20.68408966064453,11.469970703125,20.47022247314453L6.75,15.750008583068848L4.510009765625,15.750008583068848C3.6300048828125,15.750008583068848,2.8060302734375,15.243172645568848,2.572021484375,14.396004676818848C2.3575439453125,13.615242958068848,2.2491455078125,12.809578895568848,2.25,12.000008583068848C2.25,11.169930458068848,2.3619384765625,10.367196083068848,2.572021484375,9.604012489318848C2.8060302734375,8.755867958068848,3.6300048828125,8.250008583068848,4.510009765625,8.250008583068848L6.75,8.250008583068848L6.75,8.250008583068848L6.75,8.250008583068848" fill="none" stroke-linejoin="round" style="fill: none;"/></g><g fill="none" stroke-linejoin="round" id="strokes-5c4093ee-5bf7-80c5-8007-bfe27868b046-e7b61c4e-e9ad-8043-8007-bc3c7eb06bbb" class="strokes"><g class="stroke-shape"><path d="M19.114013671875,5.6362385749816895C20.8018798828125,7.3237385749816895,21.7501220703125,9.612801551818848,21.7501220703125,12.000008583068848C21.7501220703125,14.387215614318848,20.8018798828125,16.67627716064453,19.114013671875,18.36377716064453M16.4630126953125,8.288094520568848C18.5128173828125,10.338387489318848,18.5128173828125,13.661629676818848,16.4630126953125,15.711922645568848M6.75,8.250008583068848L7.09222412109375,7.9077839851379395L11.469970703125,3.5297935009002686C11.6844482421875,3.3159263134002686,12.0068359375,3.2519614696502686,12.286865234375,3.3676841259002686C12.5670166015625,3.4838950634002686,12.749755859375,3.7568442821502686,12.75,4.0600666999816895L12.75,19.93994903564453C12.749755859375,20.24317169189453,12.5670166015625,20.51612091064453,12.286865234375,20.63233184814453C12.0068359375,20.74805450439453,11.6844482421875,20.68408966064453,11.469970703125,20.47022247314453L6.75,15.750008583068848L4.510009765625,15.750008583068848C3.6300048828125,15.750008583068848,2.8060302734375,15.243172645568848,2.572021484375,14.396004676818848C2.3575439453125,13.615242958068848,2.2491455078125,12.809578895568848,2.25,12.000008583068848C2.25,11.169930458068848,2.3619384765625,10.367196083068848,2.572021484375,9.604012489318848C2.8060302734375,8.755867958068848,3.6300048828125,8.250008583068848,4.510009765625,8.250008583068848L6.75,8.250008583068848L6.75,8.250008583068848L6.75,8.250008583068848" style="fill: none; stroke-width: 1.5; stroke: rgb(0, 0, 0); stroke-opacity: 1; stroke-linecap: round;"/></g></g></g></g></g></g></g></g></g></g></svg>