<svg width="24" xmlns="http://www.w3.org/2000/svg" height="24" id="screenshot-c53ee40d-559c-809e-8007-bfd8d5cf3f89" viewBox="0 0 24 24" xmlns:xlink="http://www.w3.org/1999/xlink" fill="none" version="1.1"><g id="shape-c53ee40d-559c-809e-8007-bfd8d5cf3f89"><g class="frame-container-wrapper"><g class="frame-container-blur"><g class="frame-container-shadows"><g fill="none"><g class="fills" id="fills-c53ee40d-559c-809e-8007-bfd8d5cf3f89"><rect rx="0" ry="0" x="0" y="0" width="24" height="24" transform="matrix(1.000000, 0.000000, 0.000000, 1.000000, 0.000000, 0.000000)" class="frame-background"/></g><g class="frame-children"><g id="shape-c53ee40d-559c-809e-8007-bfd8d5cf3f8a" rx="0" ry="0" style="fill: rgb(0, 0, 0);"><g id="shape-c53ee40d-559c-809e-8007-bfd8d5cf3f8b" style="display: none;"><g class="fills" id="fills-c53ee40d-559c-809e-8007-bfd8d5cf3f8b"><rect width="24" height="24" x="0" transform="matrix(1.000000, 0.000000, 0.000000, 1.000000, 0.000000, 0.000000)" style="fill: none;" ry="0" fill="none" rx="0" y="0"/></g><g fill="none" id="strokes-5c4093ee-5bf7-80c5-8007-bfe27865efd1-c53ee40d-559c-809e-8007-bfd8d5cf3f8b" class="strokes"><g class="stroke-shape"><rect rx="0" ry="0" x="0" y="0" transform="matrix(1.000000, 0.000000, 0.000000, 1.000000, 0.000000, 0.000000)" width="24" height="24" style="fill: none; stroke-width: 1.5; stroke: rgb(0, 0, 0); stroke-opacity: 1;"/></g></g></g><g id="shape-c53ee40d-559c-809e-8007-bfd8d5cf3f8c"><g class="fills" id="fills-c53ee40d-559c-809e-8007-bfd8d5cf3f8c"><path d="M12,3L12,5.25M18.364013671875,5.635986328125L16.77294921875,7.22698974609375M21,12L18.75,12M18.364013671875,18.364013671875L16.77294921875,16.77301025390625M12,18.75L12,21M7.2269287109375,16.77301025390625L5.635986328125,18.364013671875M5.25,12L3,12M7.2269287109375,7.22698974609375L5.635986328125,5.635986328125M15.75,12C15.75,14.071044921875,14.071044921875,15.75,12,15.75C9.928955078125,15.75,8.25,14.071044921875,8.25,12C8.25,9.928955078125,9.928955078125,8.25,12,8.25C14.071044921875,8.25,15.75,9.928955078125,15.75,12Z" fill="none" stroke-linejoin="round" style="fill: none;"/></g><g fill="none" stroke-linejoin="round" id="strokes-5c4093ee-5bf7-80c5-8007-bfe2786606a3-c53ee40d-559c-809e-8007-bfd8d5cf3f8c" class="strokes"><g class="stroke-shape"><path d="M12,3L12,5.25M18.364013671875,5.635986328125L16.77294921875,7.22698974609375M21,12L18.75,12M18.364013671875,18.364013671875L16.77294921875,16.77301025390625M12,18.75L12,21M7.2269287109375,16.77301025390625L5.635986328125,18.364013671875M5.25,12L3,12M7.2269287109375,7.22698974609375L5.635986328125,5.635986328125M15.75,12C15.75,14.071044921875,14.071044921875,15.75,12,15.75C9.928955078125,15.75,8.25,14.071044921875,8.25,12C8.25,9.928955078125,9.928955078125,8.25,12,8.25C14.071044921875,8.25,15.75,9.928955078125,15.75,12Z" style="fill: none; stroke-width: 1.5; stroke: rgb(0, 0, 0); stroke-opacity: 1; stroke-linecap: round;"/></g></g></g></g></g></g></g></g></g></g></svg>