<svg width="24" xmlns="http://www.w3.org/2000/svg" height="24" id="screenshot-c53ee40d-559c-809e-8007-bfe0a9dba939" viewBox="0 0 24 24" xmlns:xlink="http://www.w3.org/1999/xlink" fill="none" version="1.1"><g id="shape-c53ee40d-559c-809e-8007-bfe0a9dba939"><g class="frame-container-wrapper"><g class="frame-container-blur"><g class="frame-container-shadows"><g fill="none"><g class="fills" id="fills-c53ee40d-559c-809e-8007-bfe0a9dba939"><rect rx="0" ry="0" x="0" y="0" width="24" height="24" transform="matrix(1.000000, 0.000000, 0.000000, 1.000000, 0.000000, 0.000000)" class="frame-background"/></g><g class="frame-children"><g id="shape-c53ee40d-559c-809e-8007-bfe0a9dba93a" rx="0" ry="0" style="fill: rgb(0, 0, 0);"><g id="shape-c53ee40d-559c-809e-8007-bfe0a9dba93b" style="display: none;"><g class="fills" id="fills-c53ee40d-559c-809e-8007-bfe0a9dba93b"><rect width="24" height="24" x="0" transform="matrix(1.000000, 0.000000, 0.000000, 1.000000, 0.000000, 0.000000)" style="fill: none;" ry="0" fill="none" rx="0" y="0"/></g><g fill="none" id="strokes-5c4093ee-5bf7-80c5-8007-bfe27844e8c6-c53ee40d-559c-809e-8007-bfe0a9dba93b" class="strokes"><g class="stroke-shape"><rect rx="0" ry="0" x="0" y="0" transform="matrix(1.000000, 0.000000, 0.000000, 1.000000, 0.000000, 0.000000)" width="24" height="24" style="fill: none; stroke-width: 1.5; stroke: rgb(0, 0, 0); stroke-opacity: 1;"/></g></g></g><g id="shape-c53ee40d-559c-809e-8007-bfe0a9dba93c"><g class="fills" id="fills-c53ee40d-559c-809e-8007-bfe0a9dba93c"><path d="M15,15L9,21M9,21L3,15M9,21L9,9C9,5.686279296875,11.686279296875,3,15,3C18.313720703125,3,21,5.686279296875,21,9L21,12" fill="none" stroke-linejoin="round" style="fill: none;"/></g><g fill="none" stroke-linejoin="round" id="strokes-5c4093ee-5bf7-80c5-8007-bfe27845522d-c53ee40d-559c-809e-8007-bfe0a9dba93c" class="strokes"><g class="stroke-shape"><path d="M15,15L9,21M9,21L3,15M9,21L9,9C9,5.686279296875,11.686279296875,3,15,3C18.313720703125,3,21,5.686279296875,21,9L21,12" style="fill: none; stroke-width: 1.5; stroke: rgb(0, 0, 0); stroke-opacity: 1; stroke-linecap: round;"/></g></g></g></g></g></g></g></g></g></g></svg>